<svg xmlns="http://www.w3.org/2000/svg" viewBox="0 0 822.726 898.888">
  <defs>
    <style>
      .cls-1 {
        opacity: 0.1;
      }

      .cls-10, .cls-11, .cls-12, .cls-13, .cls-14, .cls-15, .cls-16, .cls-17, .cls-18, .cls-19, .cls-2, .cls-20, .cls-21, .cls-22, .cls-23, .cls-24, .cls-25, .cls-26, .cls-27, .cls-28, .cls-29, .cls-3, .cls-30, .cls-31, .cls-32, .cls-33, .cls-34, .cls-35, .cls-36, .cls-37, .cls-38, .cls-39, .cls-4, .cls-40, .cls-41, .cls-42, .cls-43, .cls-44, .cls-45, .cls-46, .cls-47, .cls-48, .cls-49, .cls-5, .cls-50, .cls-51, .cls-52, .cls-53, .cls-54, .cls-55, .cls-56, .cls-57, .cls-58, .cls-59, .cls-6, .cls-60, .cls-61, .cls-62, .cls-63, .cls-64, .cls-65, .cls-66, .cls-67, .cls-68, .cls-69, .cls-7, .cls-70, .cls-71, .cls-72, .cls-73, .cls-75, .cls-8, .cls-9 {
        fill: #0f6cd6;
      }

      .cls-2, .cls-74 {
        opacity: 0.244;
      }

      .cls-3, .cls-76 {
        opacity: 0.504;
      }

      .cls-4, .cls-77 {
        opacity: 0.878;
      }

      .cls-5, .cls-78 {
        opacity: 0.576;
      }

      .cls-6 {
        opacity: 0.635;
      }

      .cls-7 {
        opacity: 0.136;
      }

      .cls-79, .cls-8 {
        opacity: 0.181;
      }

      .cls-9 {
        opacity: 0.248;
      }

      .cls-10, .cls-81 {
        opacity: 0.055;
      }

      .cls-11 {
        opacity: 0.883;
      }

      .cls-12, .cls-82 {
        opacity: 0.341;
      }

      .cls-13, .cls-83 {
        opacity: 0.44;
      }

      .cls-14, .cls-84 {
        opacity: 0.869;
      }

      .cls-15 {
        opacity: 0.672;
      }

      .cls-16, .cls-85 {
        opacity: 0.638;
      }

      .cls-17, .cls-86 {
        opacity: 0.653;
      }

      .cls-18, .cls-87 {
        opacity: 0.407;
      }

      .cls-19, .cls-88 {
        opacity: 0.193;
      }

      .cls-20, .cls-89 {
        opacity: 0.167;
      }

      .cls-21, .cls-90 {
        opacity: 0.34;
      }

      .cls-22 {
        opacity: 0.201;
      }

      .cls-23, .cls-91 {
        opacity: 0.918;
      }

      .cls-24, .cls-92 {
        opacity: 0.198;
      }

      .cls-25 {
        opacity: 0.682;
      }

      .cls-26 {
        opacity: 0.154;
      }

      .cls-27 {
        opacity: 0.937;
      }

      .cls-28, .cls-93 {
        opacity: 0.267;
      }

      .cls-29, .cls-94 {
        opacity: 0.781;
      }

      .cls-30, .cls-95 {
        opacity: 0.935;
      }

      .cls-31, .cls-96 {
        opacity: 0.496;
      }

      .cls-32, .cls-97 {
        opacity: 0.627;
      }

      .cls-33, .cls-98 {
        opacity: 0.756;
      }

      .cls-34, .cls-99 {
        opacity: 0.356;
      }

      .cls-100, .cls-35 {
        opacity: 0.059;
      }

      .cls-101, .cls-36 {
        opacity: 0.6;
      }

      .cls-102, .cls-37 {
        opacity: 0.788;
      }

      .cls-103, .cls-38 {
        opacity: 0.397;
      }

      .cls-104, .cls-39 {
        opacity: 0.135;
      }

      .cls-105, .cls-40 {
        opacity: 0.302;
      }

      .cls-106, .cls-41 {
        opacity: 0.584;
      }

      .cls-42 {
        opacity: 0.965;
      }

      .cls-43 {
        opacity: 0.831;
      }

      .cls-44 {
        opacity: 0.096;
      }

      .cls-111, .cls-45 {
        opacity: 0.941;
      }

      .cls-109, .cls-46 {
        opacity: 0.593;
      }

      .cls-110, .cls-47 {
        opacity: 0.408;
      }

      .cls-112, .cls-48 {
        opacity: 0.255;
      }

      .cls-113, .cls-49 {
        opacity: 0.594;
      }

      .cls-50 {
        opacity: 0.518;
      }

      .cls-114, .cls-51 {
        opacity: 0.767;
      }

      .cls-52 {
        opacity: 0.35;
      }

      .cls-115, .cls-53 {
        opacity: 0.226;
      }

      .cls-116, .cls-54 {
        opacity: 0.125;
      }

      .cls-117, .cls-55 {
        opacity: 0.291;
      }

      .cls-118, .cls-56 {
        opacity: 0.789;
      }

      .cls-57 {
        opacity: 0.715;
      }

      .cls-58 {
        opacity: 0.2;
      }

      .cls-119, .cls-59 {
        opacity: 0.761;
      }

      .cls-60 {
        opacity: 0.166;
      }

      .cls-120, .cls-61 {
        opacity: 0.319;
      }

      .cls-121, .cls-62 {
        opacity: 0.769;
      }

      .cls-122, .cls-63 {
        opacity: 0.791;
      }

      .cls-64 {
        opacity: 0.71;
      }

      .cls-65 {
        opacity: 0.155;
      }

      .cls-124, .cls-66 {
        opacity: 0.142;
      }

      .cls-125, .cls-67 {
        opacity: 0.35;
      }

      .cls-126, .cls-68 {
        opacity: 0.595;
      }

      .cls-69 {
        opacity: 0.983;
      }

      .cls-127, .cls-70 {
        opacity: 0.801;
      }

      .cls-128, .cls-71 {
        opacity: 0.38;
      }

      .cls-129, .cls-72 {
        opacity: 0.928;
      }

      .cls-130, .cls-73 {
        opacity: 0.936;
      }

      .cls-80 {
        opacity: 0.697;
      }

      .cls-107 {
        opacity: 0.725;
      }

      .cls-108 {
        opacity: 0.644;
      }

      .cls-123 {
        opacity: 0.724;
      }
    </style>
  </defs>
  <g id="pattern" class="cls-1" transform="translate(0 898.888) rotate(-90)">
    <g id="Group_3388" data-name="Group 3388">
      <g id="Group_3386" data-name="Group 3386">
        <g id="Group_3373" data-name="Group 3373" transform="translate(72.973 36.175)">
          <path id="triangle36_296_" class="cls-2" d="M291.375,235.022,275.9,177.4l-47.7,60.723Z" transform="translate(287.255 244.816)"/>
          <path id="triangle36_295_" class="cls-3" d="M314.27,327.171,289,235.7l98.759,10.594Z" transform="translate(383.232 337.159)"/>
          <path id="triangle36_294_" class="cls-4" d="M298.8,320.677l118.1,10.077L372.289,239.8Z" transform="translate(398.702 343.653)"/>
          <path id="triangle36_293_" class="cls-5" d="M244.3,87.4l44.093,29.457-2.836-8.785Z" transform="translate(312.67 102.261)"/>
          <path id="Path_7568" data-name="Path 7568" class="cls-6" d="M150.009,324.911,136.6,313.8l4.126,11.111Z" transform="translate(142.659 460.865)"/>
          <path id="Path_7569" data-name="Path 7569" class="cls-7" d="M197.2,329.663,191.008,310.8,136.6,318.552l13.409,11.111Z" transform="translate(142.659 456.113)"/>
          <path id="triangle36_291_" class="cls-8" d="M274.094,45.2l47.961,39.017L266.1,117.034Z" transform="translate(347.083 35.419)"/>
          <path id="triangle36_290_" class="cls-9" d="M28.3,222.4l93.086,37.725L72.651,285.19Z" transform="translate(-28.3 316.093)"/>
          <path id="triangle36_289_" class="cls-10" d="M252.7,213.8l11.088-23L361,237.311Z" transform="translate(325.93 266.04)"/>
          <path id="triangle36_288_" class="cls-11" d="M295.6,335.036,336.084,286.2l-32.748,50.645Z" transform="translate(393.651 417.148)"/>
          <path id="triangle36_287_" class="cls-12" d="M318.659,185.862,292.1,134.7l80.709,43.927Z" transform="translate(388.126 177.181)"/>
          <path id="triangle36_286_" class="cls-13" d="M364.657,202.893,351.764,127.7,323.4,189.715Z" transform="translate(437.535 166.094)"/>
          <path id="triangle36_285_" class="cls-14" d="M287.8,95.939l125.318,18.088L306.366,37.8Z" transform="translate(381.338 23.698)"/>
          <path id="triangle36_284_" class="cls-15" d="M157.7,340.578,224.485,292l49.251,58.4Z" transform="translate(175.967 426.335)"/>
          <path id="triangle36_283_" class="cls-16" d="M111.4,189l36.1,14.212-10.83,6.46Z" transform="translate(102.879 263.189)"/>
          <path id="triangle36_282_" class="cls-17" d="M109.2,317.566,132.923,215.5l31.2,115.76Z" transform="translate(99.406 305.164)"/>
          <path id="triangle36_281_" class="cls-18" d="M123.252,200.96l10.83-6.46L119.9,223.182Z" transform="translate(116.297 271.901)"/>
          <path id="triangle36_280_" class="cls-19" d="M172.6,231.494l86.124,5.943L237.838,150.1Z" transform="translate(199.487 201.574)"/>
          <path id="triangle36_279_" class="cls-20" d="M181.781,315.428,162.7,268.4l90.508,29.457Z" transform="translate(183.859 388.954)"/>
          <path id="Path_7570" data-name="Path 7570" class="cls-21" d="M369.984,154.114,339.3,95.2l-4.9,83.978,35.584,15.245Z" transform="translate(454.899 114.616)"/>
          <path id="triangle36_278_" class="cls-22" d="M196.6,45.8l60.854,81.911L229.606,47.35Z" transform="translate(237.373 36.369)"/>
          <path id="triangle36_277_" class="cls-23" d="M263.136,104.185,260.3,95.4l38.679,29.715Z" transform="translate(337.927 114.933)"/>
          <path id="triangle36_276_" class="cls-24" d="M318.62,178.733l13.924-59.689L275.3,106.9Z" transform="translate(361.606 133.148)"/>
          <path id="triangle36_275_" class="cls-25" d="M262.9,71.142l50.024-6.46L241.5,32.9Z" transform="translate(308.25 15.936)"/>
          <path id="Path_7571" data-name="Path 7571" class="cls-26" d="M107.171,326.653,89.894,312.7,86.8,326.653Z" transform="translate(64.046 459.122)"/>
          <path id="Path_7572" data-name="Path 7572" class="cls-27" d="M207.036,323.644l1.031-9.044-8.767,9.044Z" transform="translate(241.635 462.132)"/>
          <path id="triangle36_274_" class="cls-28" d="M292.1,171.606l109.073-18.088L359.4,111.4Z" transform="translate(388.126 140.276)"/>
          <path id="triangle36_273_" class="cls-29" d="M294.7,208.8l84.061,80.1,7.478-64.6Z" transform="translate(392.23 294.551)"/>
          <path id="Path_7573" data-name="Path 7573" class="cls-30" d="M376.614,209.4,330.2,223.353l46.414,17.829Z" transform="translate(448.269 295.502)"/>
          <path id="triangle36_272_" class="cls-31" d="M109.2,317.566,132.923,215.5l-23.207,5.943Z" transform="translate(99.406 305.164)"/>
          <path id="triangle36_271_" class="cls-32" d="M220.2,77.5l62.143,25.581-33.521,45.994Z" transform="translate(274.627 86.58)"/>
          <path id="triangle36_270_" class="cls-33" d="M308.141,153.579l.774-54.779L231.3,115.337Z" transform="translate(292.149 120.318)"/>
          <path id="triangle36_269_" class="cls-34" d="M257,224.538l97.212,46.511L373.293,169.5Z" transform="translate(332.718 232.302)"/>
          <path id="triangle36_266_" class="cls-35" d="M255.5,146.9l120.935,19.638-.774,38.759Z" transform="translate(330.35 196.505)"/>
          <path id="triangle36_265_" class="cls-36" d="M206,204.966l30.427,6.718,24.5-41.085Z" transform="translate(252.211 234.045)"/>
          <path id="triangle36_264_" class="cls-37" d="M206,223.34,219.666,159l41.257,29.974Z" transform="translate(252.211 215.671)"/>
          <path id="triangle36_262_" class="cls-38" d="M217.8,212.318,258.541,170.2,242.3,171.234Z" transform="translate(270.838 233.411)"/>
          <path id="triangle36_261_" class="cls-39" d="M257.91,209.957,218.2,145.1l23.465,65.891Z" transform="translate(271.47 193.654)"/>
          <path id="triangle36_260_" class="cls-40" d="M145.8,325.921l62.659-15.245L154.825,271.4Z" transform="translate(157.182 393.706)"/>
          <path id="triangle36_259_" class="cls-41" d="M64.4,246.979,127.059,230.7l-23.207,40.568Z" transform="translate(28.686 329.24)"/>
          <path id="Path_7574" data-name="Path 7574" class="cls-42" d="M126.738,327.921l3.094-13.953L61.5,311.9l20.113,16.02Z" transform="translate(24.108 457.855)"/>
          <path id="triangle36_258_" class="cls-43" d="M129.832,359.268,127,283.3,61.5,357.2Z" transform="translate(24.108 412.555)"/>
          <path id="triangle36_257_" class="cls-44" d="M269.1,284.885l68.332,66.149L328.665,276.1Z" transform="translate(351.819 401.15)"/>
          <path id="triangle36_255_" class="cls-45" d="M300.967,351.034,341.451,302.2,292.2,276.1Z" transform="translate(388.284 401.15)"/>
          <path id="triangle36_254_" class="cls-46" d="M242.1,380.16l69.621-81.652L263.76,267.5Z" transform="translate(309.198 387.529)"/>
          <path id="triangle36_253_" class="cls-47" d="M162.7,341.1l22.949-118.6,40.226,55.3Z" transform="translate(183.859 316.251)"/>
          <path id="triangle36_252_" class="cls-45" d="M213.4,258.439l74-25.839-29.654,96.381Z" transform="translate(263.893 332.249)"/>
          <path id="triangle36_251_" class="cls-48" d="M266.1,93.116,322.055,60.3l30.169,85.012Z" transform="translate(347.083 59.336)"/>
          <path id="triangle36_250_" class="cls-49" d="M297.5,140.745l40.226-13.695L302.657,93.2Z" transform="translate(396.65 111.448)"/>
          <path id="Path_7575" data-name="Path 7575" class="cls-50" d="M358.3,169.6l-16.5,12.661L358.3,182Z" transform="translate(466.581 232.461)"/>
          <path id="Path_7576" data-name="Path 7576" class="cls-51" d="M367.143,14,336.2,41.907l30.943-8.269Z" transform="translate(457.741 -14)"/>
          <path id="Path_7577" data-name="Path 7577" class="cls-52" d="M301.656,337.583,309.65,305.8,291.6,337.583Z" transform="translate(387.337 448.193)"/>
          <path id="triangle36_249_" class="cls-53" d="M118.4,231.181l3.868-25.581,36.358,18.346Z" transform="translate(113.929 289.483)"/>
          <path id="triangle36_248_" class="cls-54" d="M119.9,223.182,134.082,194.5l22.176,47.028Z" transform="translate(116.297 271.901)"/>
          <path id="triangle36_247_" class="cls-55" d="M125.4,208.755,170.525,185.5l-22.949,70.283Z" transform="translate(124.979 257.645)"/>
          <path id="triangle36_245_" class="cls-56" d="M230.954,242.616,243.589,209.8,134,217.293Z" transform="translate(138.554 296.135)"/>
          <path id="triangle36_244_" class="cls-57" d="M164.383,355.141,143.239,287.7,119,321.033Z" transform="translate(114.876 419.524)"/>
          <path id="triangle36_242_" class="cls-58" d="M108.966,341.28l55.181-13.436L90.4,283.4Z" transform="translate(69.729 412.713)"/>
          <path id="triangle36_241_" class="cls-59" d="M92.741,336.2,83.2,249.9l18.566,86.562Z" transform="translate(58.363 359.651)"/>
          <path id="triangle36_240_" class="cls-60" d="M164.147,327.844l24.239-33.333L90.4,283.4Z" transform="translate(69.729 412.713)"/>
          <path id="triangle36_239_" class="cls-61" d="M134.289,260.3l48.477,28.682L128.1,298.542Z" transform="translate(129.241 376.124)"/>
          <path id="triangle36_238_" class="cls-62" d="M88.7,268.239l53.376-33.333L92.568,207Z" transform="translate(67.045 291.7)"/>
          <path id="triangle36_236_" class="cls-63" d="M143.061,188l1.8,2.584L90.2,237.095Z" transform="translate(69.413 261.605)"/>
          <path id="triangle36_235_" class="cls-64" d="M218.944,375.774,197.8,287.4,242.151,275Z" transform="translate(239.267 399.408)"/>
          <path id="Path_7578" data-name="Path 7578" class="cls-65" d="M426.5,310.662,346.046,294.9,298.6,323.065,426.5,317.9Z" transform="translate(398.387 430.928)"/>
          <path id="triangle36_233_" class="cls-66" d="M314.458,304.611l17.018-12.92L278.1,258.1Z" transform="translate(366.026 372.639)"/>
          <path id="triangle36_232_" class="cls-67" d="M244.3,110.209,300.513,73l-20.629,48.061Z" transform="translate(312.67 79.452)"/>
          <path id="triangle36_231_" class="cls-68" d="M263.773,130.88,278.729,73,258.1,121.061Z" transform="translate(334.455 79.452)"/>
          <path id="triangle36_230_" class="cls-69" d="M71.761,364.487,55,322.885,101.156,278.7Z" transform="translate(13.848 405.269)"/>
          <path id="triangle36_229_" class="cls-63" d="M61.5,364.487l65.5-73.9L90.9,278.7Z" transform="translate(24.108 405.269)"/>
          <path id="triangle36_228_" class="cls-70" d="M302.1,193.259l.774-38.759,11.6,10.336Z" transform="translate(403.911 208.543)"/>
          <path id="triangle36_227_" class="cls-71" d="M302.4,158.935l54.15-7.235L314,169.271Z" transform="translate(404.385 204.108)"/>
          <path id="triangle36_226_" class="cls-72" d="M206,183.9l30.427,6.718-15.471,3.1Z" transform="translate(252.211 255.111)"/>
          <path id="triangle36_225_" class="cls-73" d="M176.5,250.824,252.568,183.9l14.956,9.819Z" transform="translate(205.644 255.111)"/>
        </g>
        <g id="Group_3374" data-name="Group 3374" transform="translate(72.973 36.175)">
          <path id="triangle36_224_" class="cls-2" d="M291.375,235.022,275.9,177.4l-47.7,60.723Z" transform="translate(287.255 244.816)"/>
          <path id="triangle36_223_" class="cls-3" d="M314.27,327.171,289,235.7l98.759,10.594Z" transform="translate(383.232 337.159)"/>
          <path id="triangle36_222_" class="cls-4" d="M298.8,320.677l118.1,10.077L372.289,239.8Z" transform="translate(398.702 343.653)"/>
          <path id="triangle36_221_" class="cls-5" d="M244.3,87.4l44.093,29.457-2.836-8.785Z" transform="translate(312.67 102.261)"/>
          <path id="Path_7579" data-name="Path 7579" class="cls-6" d="M150.009,324.911,136.6,313.8l4.126,11.111Z" transform="translate(142.659 460.865)"/>
          <path id="Path_7580" data-name="Path 7580" class="cls-7" d="M197.2,329.663,191.008,310.8,136.6,318.552l13.409,11.111Z" transform="translate(142.659 456.113)"/>
          <path id="triangle36_220_" class="cls-8" d="M274.094,45.2l47.961,39.017L266.1,117.034Z" transform="translate(347.083 35.419)"/>
          <path id="triangle36_219_" class="cls-9" d="M28.3,222.4l93.086,37.725L72.651,285.19Z" transform="translate(-28.3 316.093)"/>
          <path id="triangle36_218_" class="cls-10" d="M252.7,213.8l11.088-23L361,237.311Z" transform="translate(325.93 266.04)"/>
          <path id="triangle36_217_" class="cls-11" d="M295.6,335.036,336.084,286.2l-32.748,50.645Z" transform="translate(393.651 417.148)"/>
          <path id="triangle36_215_" class="cls-12" d="M318.659,185.862,292.1,134.7l80.709,43.927Z" transform="translate(388.126 177.181)"/>
          <path id="triangle36_214_" class="cls-13" d="M364.657,202.893,351.764,127.7,323.4,189.715Z" transform="translate(437.535 166.094)"/>
          <path id="triangle36_213_" class="cls-14" d="M287.8,95.939l125.318,18.088L306.366,37.8Z" transform="translate(381.338 23.698)"/>
          <path id="triangle36_212_" class="cls-15" d="M157.7,340.578,224.485,292l49.251,58.4Z" transform="translate(175.967 426.335)"/>
          <path id="triangle36_211_" class="cls-16" d="M111.4,189l36.1,14.212-10.83,6.46Z" transform="translate(102.879 263.189)"/>
          <path id="triangle36_210_" class="cls-17" d="M109.2,317.566,132.923,215.5l31.2,115.76Z" transform="translate(99.406 305.164)"/>
          <path id="triangle36_209_" class="cls-18" d="M123.252,200.96l10.83-6.46L119.9,223.182Z" transform="translate(116.297 271.901)"/>
          <path id="triangle36_207_" class="cls-19" d="M172.6,231.494l86.124,5.943L237.838,150.1Z" transform="translate(199.487 201.574)"/>
          <path id="triangle36_206_" class="cls-20" d="M181.781,315.428,162.7,268.4l90.508,29.457Z" transform="translate(183.859 388.954)"/>
          <path id="Path_7581" data-name="Path 7581" class="cls-21" d="M369.984,154.114,339.3,95.2l-4.9,83.978,35.584,15.245Z" transform="translate(454.899 114.616)"/>
          <path id="triangle36_205_" class="cls-22" d="M196.6,45.8l60.854,81.911L229.606,47.35Z" transform="translate(237.373 36.369)"/>
          <path id="triangle36_204_" class="cls-23" d="M263.136,104.185,260.3,95.4l38.679,29.715Z" transform="translate(337.927 114.933)"/>
          <path id="triangle36_203_" class="cls-24" d="M318.62,178.733l13.924-59.689L275.3,106.9Z" transform="translate(361.606 133.148)"/>
          <path id="triangle36_202_" class="cls-25" d="M262.9,71.142l50.024-6.46L241.5,32.9Z" transform="translate(308.25 15.936)"/>
          <path id="Path_7582" data-name="Path 7582" class="cls-26" d="M107.171,326.653,89.894,312.7,86.8,326.653Z" transform="translate(64.046 459.122)"/>
          <path id="Path_7583" data-name="Path 7583" class="cls-27" d="M207.036,323.644l1.031-9.044-8.767,9.044Z" transform="translate(241.635 462.132)"/>
          <path id="triangle36_201_" class="cls-28" d="M292.1,171.606l109.073-18.088L359.4,111.4Z" transform="translate(388.126 140.276)"/>
          <path id="triangle36_200_" class="cls-29" d="M294.7,208.8l84.061,80.1,7.478-64.6Z" transform="translate(392.23 294.551)"/>
          <path id="Path_7584" data-name="Path 7584" class="cls-30" d="M376.614,209.4,330.2,223.353l46.414,17.829Z" transform="translate(448.269 295.502)"/>
          <path id="triangle36_199_" class="cls-31" d="M109.2,317.566,132.923,215.5l-23.207,5.943Z" transform="translate(99.406 305.164)"/>
          <path id="triangle36_198_" class="cls-32" d="M220.2,77.5l62.143,25.581-33.521,45.994Z" transform="translate(274.627 86.58)"/>
          <path id="triangle36_195_" class="cls-33" d="M308.141,153.579l.774-54.779L231.3,115.337Z" transform="translate(292.149 120.318)"/>
          <path id="triangle36_194_" class="cls-34" d="M257,224.538l97.212,46.511L373.293,169.5Z" transform="translate(332.718 232.302)"/>
          <path id="triangle36_192_" class="cls-35" d="M255.5,146.9l120.935,19.638-.774,38.759Z" transform="translate(330.35 196.505)"/>
          <path id="triangle36_191_" class="cls-36" d="M206,204.966l30.427,6.718,24.5-41.085Z" transform="translate(252.211 234.045)"/>
          <path id="triangle36_190_" class="cls-37" d="M206,223.34,219.666,159l41.257,29.974Z" transform="translate(252.211 215.671)"/>
          <path id="triangle36_189_" class="cls-38" d="M217.8,212.318,258.541,170.2,242.3,171.234Z" transform="translate(270.838 233.411)"/>
          <path id="triangle36_188_" class="cls-39" d="M257.91,209.957,218.2,145.1l23.465,65.891Z" transform="translate(271.47 193.654)"/>
          <path id="triangle36_187_" class="cls-40" d="M145.8,325.921l62.659-15.245L154.825,271.4Z" transform="translate(157.182 393.706)"/>
          <path id="triangle36_184_" class="cls-41" d="M64.4,246.979,127.059,230.7l-23.207,40.568Z" transform="translate(28.686 329.24)"/>
          <path id="Path_7585" data-name="Path 7585" class="cls-42" d="M126.738,327.921l3.094-13.953L61.5,311.9l20.113,16.02Z" transform="translate(24.108 457.855)"/>
          <path id="triangle36_183_" class="cls-43" d="M129.832,359.268,127,283.3,61.5,357.2Z" transform="translate(24.108 412.555)"/>
          <path id="triangle36_181_" class="cls-44" d="M269.1,284.885l68.332,66.149L328.665,276.1Z" transform="translate(351.819 401.15)"/>
          <path id="triangle36_177_" class="cls-45" d="M300.967,351.034,341.451,302.2,292.2,276.1Z" transform="translate(388.284 401.15)"/>
          <path id="triangle36_176_" class="cls-46" d="M242.1,380.16l69.621-81.652L263.76,267.5Z" transform="translate(309.198 387.529)"/>
          <path id="triangle36_172_" class="cls-47" d="M162.7,341.1l22.949-118.6,40.226,55.3Z" transform="translate(183.859 316.251)"/>
          <path id="triangle36_171_" class="cls-45" d="M213.4,258.439l74-25.839-29.654,96.381Z" transform="translate(263.893 332.249)"/>
          <path id="triangle36_170_" class="cls-48" d="M266.1,93.116,322.055,60.3l30.169,85.012Z" transform="translate(347.083 59.336)"/>
          <path id="triangle36_169_" class="cls-49" d="M297.5,140.745l40.226-13.695L302.657,93.2Z" transform="translate(396.65 111.448)"/>
          <path id="Path_7586" data-name="Path 7586" class="cls-50" d="M358.3,169.6l-16.5,12.661L358.3,182Z" transform="translate(466.581 232.461)"/>
          <path id="Path_7587" data-name="Path 7587" class="cls-51" d="M367.143,14,336.2,41.907l30.943-8.269Z" transform="translate(457.741 -14)"/>
          <path id="Path_7588" data-name="Path 7588" class="cls-52" d="M301.656,337.583,309.65,305.8,291.6,337.583Z" transform="translate(387.337 448.193)"/>
          <path id="triangle36_168_" class="cls-53" d="M118.4,231.181l3.868-25.581,36.358,18.346Z" transform="translate(113.929 289.483)"/>
          <path id="triangle36_167_" class="cls-54" d="M119.9,223.182,134.082,194.5l22.176,47.028Z" transform="translate(116.297 271.901)"/>
          <path id="triangle36_166_" class="cls-55" d="M125.4,208.755,170.525,185.5l-22.949,70.283Z" transform="translate(124.979 257.645)"/>
          <path id="triangle36_165_" class="cls-56" d="M230.954,242.616,243.589,209.8,134,217.293Z" transform="translate(138.554 296.135)"/>
          <path id="triangle36_161_" class="cls-57" d="M164.383,355.141,143.239,287.7,119,321.033Z" transform="translate(114.876 419.524)"/>
          <path id="triangle36_160_" class="cls-58" d="M108.966,341.28l55.181-13.436L90.4,283.4Z" transform="translate(69.729 412.713)"/>
          <path id="triangle36_159_" class="cls-59" d="M92.741,336.2,83.2,249.9l18.566,86.562Z" transform="translate(58.363 359.651)"/>
          <path id="triangle36_158_" class="cls-60" d="M164.147,327.844l24.239-33.333L90.4,283.4Z" transform="translate(69.729 412.713)"/>
          <path id="triangle36_157_" class="cls-61" d="M134.289,260.3l48.477,28.682L128.1,298.542Z" transform="translate(129.241 376.124)"/>
          <path id="triangle36_154_" class="cls-62" d="M88.7,268.239l53.376-33.333L92.568,207Z" transform="translate(67.045 291.7)"/>
          <path id="triangle36_153_" class="cls-63" d="M143.061,188l1.8,2.584L90.2,237.095Z" transform="translate(69.413 261.605)"/>
          <path id="triangle36_150_" class="cls-64" d="M218.944,375.774,197.8,287.4,242.151,275Z" transform="translate(239.267 399.408)"/>
          <path id="Path_7589" data-name="Path 7589" class="cls-65" d="M426.5,310.662,346.046,294.9,298.6,323.065,426.5,317.9Z" transform="translate(398.387 430.928)"/>
          <path id="triangle36_141_" class="cls-66" d="M314.458,304.611l17.018-12.92L278.1,258.1Z" transform="translate(366.026 372.639)"/>
          <path id="triangle36_132_" class="cls-67" d="M244.3,110.209,300.513,73l-20.629,48.061Z" transform="translate(312.67 79.452)"/>
          <path id="triangle36_129_" class="cls-68" d="M263.773,130.88,278.729,73,258.1,121.061Z" transform="translate(334.455 79.452)"/>
          <path id="triangle36_128_" class="cls-69" d="M71.761,364.487,55,322.885,101.156,278.7Z" transform="translate(13.848 405.269)"/>
          <path id="triangle36_126_" class="cls-63" d="M61.5,364.487l65.5-73.9L90.9,278.7Z" transform="translate(24.108 405.269)"/>
          <path id="triangle36_123_" class="cls-70" d="M302.1,193.259l.774-38.759,11.6,10.336Z" transform="translate(403.911 208.543)"/>
          <path id="triangle36_122_" class="cls-71" d="M302.4,158.935l54.15-7.235L314,169.271Z" transform="translate(404.385 204.108)"/>
          <path id="triangle36_121_" class="cls-72" d="M206,183.9l30.427,6.718-15.471,3.1Z" transform="translate(252.211 255.111)"/>
          <path id="triangle36_118_" class="cls-73" d="M176.5,250.824,252.568,183.9l14.956,9.819Z" transform="translate(205.644 255.111)"/>
        </g>
        <g id="Group_3385" data-name="Group 3385">
          <g id="triangle36_117_" class="cls-74" transform="translate(525.254 512.653)">
            <path id="Path_7590" data-name="Path 7590" class="cls-75" d="M203.7,276.435,264.812,198.4l19.855,74.159Zm60.338-74.417-56.986,72.609,75.552-3.618Z" transform="translate(-203.7 -198.4)"/>
          </g>
          <g id="triangle36_113_" class="cls-76" transform="translate(720.452 700.764)">
            <path id="Path_7591" data-name="Path 7591" class="cls-75" d="M311.632,387.219,279.4,271.2l125.318,13.437Zm-29.911-114.21,30.685,111.109,89.219-98.19Z" transform="translate(-279.4 -271.2)"/>
          </g>
          <g id="Group_3375" data-name="Group 3375" class="cls-77" transform="translate(751.394 713.167)">
            <path id="Path_7592" data-name="Path 7592" class="cls-75" d="M438.121,385.559H372.109L291.4,378.582,384.486,276ZM294.752,377.29l77.615,6.718H435.8L384.229,278.842Z" transform="translate(-291.4 -276)"/>
          </g>
          <g id="triangle36_107_" class="cls-78" transform="translate(577.857 224.803)">
            <path id="Path_7593" data-name="Path 7593" class="cls-75" d="M280.828,126.276,224.1,88.292,224.874,87l51.314,25.839Zm-45.383-32.3L277.992,122.4l-2.836-8.527Z" transform="translate(-224.1 -87)"/>
          </g>
          <g id="triangle36_106_" class="cls-79" transform="translate(647.22 88.371)">
            <path id="Path_7594" data-name="Path 7594" class="cls-75" d="M251,126.447,261.314,34.2l61.37,49.87ZM262.6,37.3l-9.541,86.3L320.106,84.07Z" transform="translate(-251 -34.2)"/>
          </g>
          <g id="triangle36_105_" class="cls-80" transform="translate(151.104 492.499)">
            <path id="Path_7595" data-name="Path 7595" class="cls-75" d="M105.53,268.635,58.6,250.289,114.555,190.6ZM61.179,249.514l42.8,16.8,7.994-71.317Z" transform="translate(-58.6 -190.6)"/>
          </g>
          <g id="triangle36_104_" class="cls-81" transform="translate(604.158 556.064)">
            <path id="Path_7596" data-name="Path 7596" class="cls-75" d="M376.379,276.7,234.3,245.691,249,215.2ZM236.363,244.657l127.123,27.648L249.514,217.526Z" transform="translate(-234.3 -215.2)"/>
          </g>
          <g id="triangle36_103_" class="cls-82" transform="translate(729.734 375.188)">
            <path id="Path_7597" data-name="Path 7597" class="cls-75" d="M317.295,211.607l-.258-.517L283,145.2l104.432,57.1Zm-30.427-62.531,31.2,60.723,64.206-8.527Z" transform="translate(-283 -145.2)"/>
          </g>
          <g id="triangle36_101_" class="cls-83" transform="translate(830.556 352.191)">
            <path id="Path_7598" data-name="Path 7598" class="cls-75" d="M375.734,233.715,322.1,216.661,358.974,136.3Zm-51.571-18.088,49.509,15.762L358.2,141.726Z" transform="translate(-322.1 -136.3)"/>
          </g>
          <g id="triangle36_100_" class="cls-84" transform="translate(716.584 64.857)">
            <path id="Path_7599" data-name="Path 7599" class="cls-75" d="M437.771,122.256,277.9,99l23.98-73.9ZM279.963,97.967l151.62,21.963L302.654,27.684Z" transform="translate(-277.9 -25.1)"/>
          </g>
          <g id="triangle36_99_" class="cls-85" transform="translate(148.01 549.345)">
            <path id="Path_7600" data-name="Path 7600" class="cls-75" d="M93.242,241.8,57.4,212.6l51.056,20.155ZM66.167,217.51l27.075,22.222,11.6-6.977Z" transform="translate(-57.4 -212.6)"/>
          </g>
          <g id="triangle36_95_" class="cls-86" transform="translate(144.4 633.582)">
            <path id="Path_7601" data-name="Path 7601" class="cls-75" d="M126.395,393.26,56,375.689,86.169,245.2Zm-68.332-18.6,66.269,16.537L86.685,251.66Z" transform="translate(-56 -245.2)"/>
          </g>
          <g id="triangle36_92_" class="cls-87" transform="translate(178.179 567.433)">
            <path id="Path_7602" data-name="Path 7602" class="cls-75" d="M69.1,261.977,74,229.161,89.986,219.6Zm6.446-31.782-3.352,21.963,14.182-28.423Z" transform="translate(-69.1 -219.6)"/>
          </g>
          <g id="triangle36_91_" class="cls-88" transform="translate(346.817 424.799)">
            <path id="Path_7603" data-name="Path 7603" class="cls-75" d="M244.347,275.768,134.5,268.016,217.788,164.4Zm-106.753-9.044,104.69,7.235-25.27-105.941Z" transform="translate(-134.5 -164.4)"/>
          </g>
          <g id="Group_3376" data-name="Group 3376" class="cls-89" transform="translate(315.617 805.414)">
            <path id="Path_7604" data-name="Path 7604" class="cls-75" d="M175.518,329.013H129.362L122.4,311.7Zm-45.125-1.551H165.72l-40.483-13.178Z" transform="translate(-122.4 -311.7)"/>
          </g>
          <g id="Group_3377" data-name="Group 3377" class="cls-90" transform="translate(866.14 247.541)">
            <path id="Path_7605" data-name="Path 7605" class="cls-75" d="M368.39,217.5,335.9,203.55,342.346,95.8l26.043,50.645Zm-30.943-14.987,29.4,12.661V146.445l-23.207-44.961Z" transform="translate(-335.9 -95.8)"/>
          </g>
          <g id="triangle36_87_" class="cls-91" transform="translate(627.881 248.833)">
            <path id="Path_7606" data-name="Path 7606" class="cls-75" d="M293.009,136.093l-44.867-26.1L243.5,96.3l50.282,38.759Zm-43.578-27.131L283.21,128.6l-36.616-27.907Z" transform="translate(-243.5 -96.3)"/>
          </g>
          <g id="triangle36_86_" class="cls-92" transform="translate(676.1 286.817)">
            <path id="Path_7607" data-name="Path 7607" class="cls-75" d="M318.155,203.5,262.2,111l73.489,15.5Zm-52.6-90.179,51.829,85.787,16.5-71.317Z" transform="translate(-262.2 -111)"/>
          </g>
          <g id="triangle36_81_" class="cls-93" transform="translate(728.961 301.287)">
            <path id="Path_7608" data-name="Path 7608" class="cls-75" d="M282.7,193.6l85.866-77L422.2,170.346Zm85.866-74.676-80.709,72.35,131.249-21.705Z" transform="translate(-282.7 -116.6)"/>
          </g>
          <g id="triangle36_76_" class="cls-94" transform="translate(737.212 614.202)">
            <path id="Path_7609" data-name="Path 7609" class="cls-75" d="M393.426,339.766,285.9,237.7l117.325,19.638ZM290.8,240.026l101.338,96.381,9.283-77.777Z" transform="translate(-285.9 -237.7)"/>
          </g>
          <g id="Group_3378" data-name="Group 3378" class="cls-95" transform="translate(851.185 620.145)">
            <path id="Path_7610" data-name="Path 7610" class="cls-75" d="M377.546,272.3,330.1,254.212,377.546,240ZM335,254.47l41,15.762V242.326Z" transform="translate(-330.1 -240)"/>
          </g>
          <g id="triangle36_74_" class="cls-96" transform="translate(144.658 635.907)">
            <path id="Path_7611" data-name="Path 7611" class="cls-75" d="M56.1,380.982l.516-127.13L87.3,246.1Zm2.063-126.1L57.647,366.77l27.591-118.6Z" transform="translate(-56.1 -246.1)"/>
          </g>
          <g id="triangle36_71_" class="cls-97" transform="translate(499.726 192.245)">
            <path id="Path_7612" data-name="Path 7612" class="cls-75" d="M230.416,166.388,193.8,74.4l79.936,32.816ZM196.636,77.242l34.295,86.045,40.483-55.3Z" transform="translate(-193.8 -74.4)"/>
          </g>
          <g id="triangle36_69_" class="cls-98" transform="translate(534.279 260.978)">
            <path id="Path_7613" data-name="Path 7613" class="cls-75" d="M305.959,171.283,207.2,122.188,306.991,101Zm-94.118-48.32,92.57,45.994.773-65.89Z" transform="translate(-207.2 -101)"/>
          </g>
          <g id="triangle36_68_" class="cls-99" transform="translate(617.309 487.848)">
            <path id="Path_7614" data-name="Path 7614" class="cls-75" d="M362.4,317.48l-123-59.172L386.636,188.8ZM243.01,258.308l118.1,56.847,23.207-123.771Z" transform="translate(-239.4 -188.8)"/>
          </g>
          <g id="triangle36_60_" class="cls-100" transform="translate(608.799 414.722)">
            <path id="Path_7615" data-name="Path 7615" class="cls-75" d="M391.33,236.209,236.1,160.5l156.261,25.323Zm-144.658-72.35,143.368,70.025,1.031-46.511Z" transform="translate(-236.1 -160.5)"/>
          </g>
          <g id="triangle36_58_" class="cls-101" transform="translate(453.57 490.173)">
            <path id="Path_7616" data-name="Path 7616" class="cls-75" d="M216.126,243.963,175.9,235.177,248.358,189.7Zm-36.1-9.561,35.326,7.752,28.364-47.8Z" transform="translate(-175.9 -189.7)"/>
          </g>
          <g id="triangle36_57_" class="cls-102" transform="translate(454.343 453.998)">
            <path id="Path_7617" data-name="Path 7617" class="cls-75" d="M176.2,258.645,193.992,175.7l52.861,38.5Zm18.824-80.361-16.5,77,65.5-41.085Z" transform="translate(-176.2 -175.7)"/>
          </g>
          <g id="triangle36_55_" class="cls-103" transform="translate(489.154 490.432)">
            <path id="Path_7618" data-name="Path 7618" class="cls-75" d="M189.7,248.455l34.037-57.363,22.691-1.292Zm35.069-55.813L198.209,237.6l44.351-45.994Z" transform="translate(-189.7 -189.8)"/>
          </g>
          <g id="triangle36_54_" class="cls-104" transform="translate(491.475 403.611)">
            <path id="Path_7619" data-name="Path 7619" class="cls-75" d="M222.316,245.863,190.6,156.2l53.892,88.112Zm-25.27-75.709,26.3,74.159,18.308-1.034Z" transform="translate(-190.6 -156.2)"/>
          </g>
          <g id="Group_3379" data-name="Group 3379" class="cls-105" transform="translate(272.039 814.974)">
            <path id="Path_7620" data-name="Path 7620" class="cls-75" d="M117.619,323.152H105.5l1.289-7.752ZM107.3,321.6h5.415l-4.641-3.359Z" transform="translate(-105.5 -315.4)"/>
          </g>
          <g id="triangle36_53_" class="cls-106" transform="translate(0 684.485)">
            <path id="Path_7621" data-name="Path 7621" class="cls-75" d="M51.056,317.354,0,286.088,81.225,264.9ZM3.868,286.605l46.414,28.682,27.591-47.8Z" transform="translate(0 -264.9)"/>
          </g>
          <g id="triangle36_52_" class="cls-107" transform="translate(196.229 493.015)">
            <path id="Path_7622" data-name="Path 7622" class="cls-75" d="M76.1,268.577,84.867,190.8l49.508,47.8Zm10.056-74.417-8.251,71.575,53.634-27.648Z" transform="translate(-76.1 -190.8)"/>
          </g>
          <g id="triangle36_49_" class="cls-108" transform="translate(202.933 493.016)">
            <path id="Path_7623" data-name="Path 7623" class="cls-75" d="M130.271,240.67,78.7,190.8l43.836,12.144Zm-45.9-46.511,43.32,41.86-6.446-31.782Z" transform="translate(-78.7 -190.8)"/>
          </g>
          <g id="Group_3380" data-name="Group 3380" class="cls-109" transform="translate(593.844 802.313)">
            <path id="Path_7624" data-name="Path 7624" class="cls-75" d="M265.626,330.913H230.3l3.868-20.413ZM232.1,329.363h28.106L235.2,313.084Z" transform="translate(-230.3 -310.5)"/>
          </g>
          <g id="triangle36_48_" class="cls-110" transform="translate(315.617 657.354)">
            <path id="Path_7625" data-name="Path 7625" class="cls-75" d="M122.4,406.077,151.8,254.4l51.313,70.8-.516.517Zm30.169-147.8-27.849,143.15,76.068-76.485Z" transform="translate(-122.4 -254.4)"/>
          </g>
          <g id="triangle36_47_" class="cls-111" transform="translate(478.324 690.17)">
            <path id="Path_7626" data-name="Path 7626" class="cls-75" d="M241.713,390.1,185.5,300.174,279.618,267.1Zm-53.892-88.888,53.376,85.27,35.842-116.794Z" transform="translate(-185.5 -267.1)"/>
          </g>
          <g id="triangle36_45_" class="cls-112" transform="translate(646.705 137.207)">
            <path id="Path_7627" data-name="Path 7627" class="cls-75" d="M360.9,161.884,250.8,95.218,322.226,53.1ZM253.894,95.218l103.916,63.048L321.195,55.426Z" transform="translate(-250.8 -53.1)"/>
          </g>
          <g id="triangle36_44_" class="cls-113" transform="translate(747.784 242.632)">
            <path id="Path_7628" data-name="Path 7628" class="cls-75" d="M290,155.656,296.7,93.9l45.641,43.927ZM297.994,97l-6.189,56.071,47.446-16.279Z" transform="translate(-290 -93.9)"/>
          </g>
          <g id="Group_3381" data-name="Group 3381" class="cls-114" transform="translate(870.008)">
            <path id="Path_7629" data-name="Path 7629" class="cls-75" d="M337.4,25.839,366.28,0V18.346ZM364.475,3.618,343.331,22.739l21.144-5.685Z" transform="translate(-337.4)"/>
          </g>
          <g id="triangle36_43_" class="cls-115" transform="translate(173.795 603.866)">
            <path id="Path_7630" data-name="Path 7630" class="cls-75" d="M67.4,267.808,72.557,233.7l48.219,24.547Zm6.7-32.041-4.641,29.974,46.672-8.527Z" transform="translate(-67.4 -233.7)"/>
          </g>
          <g id="triangle36_42_" class="cls-116" transform="translate(178.695 567.691)">
            <path id="Path_7631" data-name="Path 7631" class="cls-75" d="M117.261,281.456,69.3,257.167,87.866,219.7Zm-45.9-25.064,42.546,21.447L87.866,223.059Z" transform="translate(-69.3 -219.7)"/>
          </g>
          <g id="triangle36_40_" class="cls-117" transform="translate(196.229 539.01)">
            <path id="Path_7632" data-name="Path 7632" class="cls-75" d="M104.98,299.555,76.1,238.832,134.376,208.6ZM78.163,239.349l26.559,55.813L131.8,211.7Z" transform="translate(-76.1 -208.6)"/>
          </g>
          <g id="triangle36_39_" class="cls-118" transform="translate(220.21 617.303)">
            <path id="Path_7633" data-name="Path 7633" class="cls-75" d="M211.234,281.793,85.4,248.719,227.737,238.9ZM94.941,249.753,210.2,279.985l14.956-39.018Z" transform="translate(-85.4 -238.9)"/>
          </g>
          <g id="Group_3382" data-name="Group 3382" class="cls-119" transform="translate(61.112 747.017)">
            <path id="Path_7634" data-name="Path 7634" class="cls-75" d="M41.75,364.81H32.209L23.7,289.358l1.547-.259Zm-7.994-1.55h5.931l-12.635-58.4Z" transform="translate(-23.7 -289.1)"/>
          </g>
          <g id="Group_3383" data-name="Group 3383" class="cls-120" transform="translate(206.285 779.316)">
            <path id="Path_7635" data-name="Path 7635" class="cls-75" d="M115.584,345.01H80l6.962-43.41,62.917,37.209ZM81.805,343.46h33.779l29.911-5.168-57.244-33.85Z" transform="translate(-80 -301.6)"/>
          </g>
          <g id="triangle36_38_" class="cls-121" transform="translate(78.904 608.001)">
            <path id="Path_7636" data-name="Path 7636" class="cls-75" d="M30.6,314.369,35.5,235.3,99.19,271.217Zm6.189-76.226-4.641,73.384L96.1,271.475Z" transform="translate(-30.6 -235.3)"/>
          </g>
          <g id="triangle36_37_" class="cls-122" transform="translate(83.803 547.278)">
            <path id="Path_7637" data-name="Path 7637" class="cls-75" d="M33.531,274.59,32.5,273.3l66.269-61.5,3.094,4.651Zm65.238-60.206-38.421,35.4,39.71-33.591Z" transform="translate(-32.5 -211.8)"/>
          </g>
          <g id="triangle36_36_" class="cls-123" transform="translate(227.43 462.783)">
            <path id="Path_7638" data-name="Path 7638" class="cls-75" d="M107.539,223.544,88.2,207.265,119.143,179.1Zm-17.276-16.02,16.245,13.436,9.541-36.95Z" transform="translate(-88.2 -179.1)"/>
          </g>
          <g id="Group_3384" data-name="Group 3384" class="cls-124" transform="translate(683.32 770.531)">
            <path id="Path_7639" data-name="Path 7639" class="cls-75" d="M326.112,350.4H305.741l-.258-.259L265,298.2l71.168,44.444Zm-19.6-1.551H325.6l7.736-5.943L271.7,304.4Z" transform="translate(-265 -298.2)"/>
          </g>
          <g id="triangle36_32_" class="cls-125" transform="translate(576.568 177)">
            <path id="Path_7640" data-name="Path 7640" class="cls-75" d="M270.014,131.29,223.6,117.078,297.089,68.5Zm-42.8-14.728,41.773,12.661,24.5-56.588Z" transform="translate(-223.6 -68.5)"/>
          </g>
          <g id="triangle36_31_" class="cls-126" transform="translate(621.692 178.809)">
            <path id="Path_7641" data-name="Path 7641" class="cls-75" d="M249.351,143.359,241.1,129.147,267.144,69.2l1.547.517Zm-6.7-14.212,5.931,10.077,15.729-59.947Z" transform="translate(-241.1 -69.2)"/>
          </g>
          <g id="triangle36_29_" class="cls-127" transform="translate(762.482 439.011)">
            <path id="Path_7642" data-name="Path 7642" class="cls-75" d="M295.7,223.9l1.031-54,16.245,14.47Zm2.579-50.387-.773,42.635,13.666-31.266Z" transform="translate(-295.7 -169.9)"/>
          </g>
          <g id="triangle36_26_" class="cls-128" transform="translate(762.482 430.484)">
            <path id="Path_7643" data-name="Path 7643" class="cls-75" d="M311.945,190.889,295.7,176.419l75.036-9.819ZM299.31,177.453,312.2,189.08,358.875,169.7Z" transform="translate(-295.7 -166.6)"/>
          </g>
          <g id="triangle36_25_" class="cls-129" transform="translate(451.507 533.583)">
            <path id="Path_7644" data-name="Path 7644" class="cls-75" d="M197.791,221.228,175.1,206.5l45.641,10.077Zm-14.44-11.369,14.7,9.561,15.213-3.1Z" transform="translate(-175.1 -206.5)"/>
          </g>
          <g id="triangle36_22_" class="cls-130" transform="translate(360.484 534.359)">
            <path id="Path_7645" data-name="Path 7645" class="cls-75" d="M140.831,291.553l-1.031-1.292L234.691,206.8,254.8,219.978Zm94.118-82.686-86.64,75.968L252.226,219.72Z" transform="translate(-139.8 -206.8)"/>
          </g>
        </g>
      </g>
      <g id="Group_3387" data-name="Group 3387" transform="translate(71.088 62.004)">
        <path id="Path_7646" data-name="Path 7646" class="cls-75" d="M231.16,200.882a2.04,2.04,0,1,1-2.837-.517A2.412,2.412,0,0,1,231.16,200.882Z" transform="translate(287.987 254.936)"/>
        <path id="Path_7647" data-name="Path 7647" class="cls-75" d="M249.559,177.593a2.04,2.04,0,1,1-2.836-.517A1.829,1.829,0,0,1,249.559,177.593Z" transform="translate(317.032 217.76)"/>
        <path id="Path_7648" data-name="Path 7648" class="cls-75" d="M255.56,199.825a2.04,2.04,0,1,1-2.836-.517C253.755,198.791,255.044,198.791,255.56,199.825Z" transform="translate(326.504 253.15)"/>
        <path id="Path_7649" data-name="Path 7649" class="cls-75" d="M330.16,239.782a2.04,2.04,0,1,1-2.836-.517A2.28,2.28,0,0,1,330.16,239.782Z" transform="translate(444.265 316.551)"/>
        <path id="Path_7650" data-name="Path 7650" class="cls-75" d="M291.96,235.893a2.04,2.04,0,1,1-3.352,2.326,2.106,2.106,0,0,1,.516-2.842A1.884,1.884,0,0,1,291.96,235.893Z" transform="translate(383.964 310.104)"/>
        <path id="Path_7651" data-name="Path 7651" class="cls-75" d="M301.76,271.082a2.04,2.04,0,1,1-2.836-.517A2.412,2.412,0,0,1,301.76,271.082Z" transform="translate(399.434 366.128)"/>
        <path id="Path_7652" data-name="Path 7652" class="cls-75" d="M330.16,239.782a2.04,2.04,0,1,1-2.836-.517A2.28,2.28,0,0,1,330.16,239.782Z" transform="translate(444.265 316.551)"/>
        <path id="Path_7653" data-name="Path 7653" class="cls-75" d="M347.56,274.982a2.04,2.04,0,1,1-2.837-.517A2.412,2.412,0,0,1,347.56,274.982Z" transform="translate(471.732 372.305)"/>
        <path id="Path_7654" data-name="Path 7654" class="cls-75" d="M301.76,271.082a2.04,2.04,0,1,1-2.836-.517A2.412,2.412,0,0,1,301.76,271.082Z" transform="translate(399.434 366.128)"/>
        <path id="Path_7655" data-name="Path 7655" class="cls-75" d="M263.16,95.382a2.04,2.04,0,1,1-2.837-.517A2.28,2.28,0,0,1,263.16,95.382Z" transform="translate(338.501 87.83)"/>
        <path id="Path_7656" data-name="Path 7656" class="cls-75" d="M264.36,98.993a2.04,2.04,0,1,1-2.836-.517A1.884,1.884,0,0,1,264.36,98.993Z" transform="translate(340.395 93.262)"/>
        <path id="Path_7657" data-name="Path 7657" class="cls-75" d="M247.26,87.382a2.04,2.04,0,1,1-2.836-.517A2.412,2.412,0,0,1,247.26,87.382Z" transform="translate(313.402 75.159)"/>
        <path id="Path_7658" data-name="Path 7658" class="cls-75" d="M139.56,313.782a2.04,2.04,0,1,1-2.836-.517A2.412,2.412,0,0,1,139.56,313.782Z" transform="translate(143.39 433.762)"/>
        <path id="Path_7659" data-name="Path 7659" class="cls-75" d="M160.56,310.782a2.04,2.04,0,1,1-2.836-.517A2.28,2.28,0,0,1,160.56,310.782Z" transform="translate(176.54 429.01)"/>
        <path id="Path_7660" data-name="Path 7660" class="cls-75" d="M139.56,313.782a2.04,2.04,0,1,1-2.836-.517A2.412,2.412,0,0,1,139.56,313.782Z" transform="translate(143.39 433.762)"/>
        <path id="Path_7661" data-name="Path 7661" class="cls-75" d="M269.06,73.193a2.04,2.04,0,1,1-2.836-.517A1.884,1.884,0,0,1,269.06,73.193Z" transform="translate(347.814 52.397)"/>
        <path id="Path_7662" data-name="Path 7662" class="cls-75" d="M290.66,60.282a2.04,2.04,0,1,1-2.836-.517A2.28,2.28,0,0,1,290.66,60.282Z" transform="translate(381.911 32.234)"/>
        <path id="Path_7663" data-name="Path 7663" class="cls-75" d="M272.16,45.393a2.04,2.04,0,1,1-2.837-.517A1.884,1.884,0,0,1,272.16,45.393Z" transform="translate(352.708 8.363)"/>
        <path id="Path_7664" data-name="Path 7664" class="cls-75" d="M48.36,246.682a2.04,2.04,0,1,1-2.836-.517A2.28,2.28,0,0,1,48.36,246.682Z" transform="translate(-0.575 327.48)"/>
        <path id="Path_7665" data-name="Path 7665" class="cls-75" d="M67.36,237.082a2.04,2.04,0,1,1-2.836-.517A2.35,2.35,0,0,1,67.36,237.082Z" transform="translate(29.418 312.274)"/>
        <path id="Path_7666" data-name="Path 7666" class="cls-75" d="M31.26,222.382a2.04,2.04,0,1,1-2.836-.517A2.412,2.412,0,0,1,31.26,222.382Z" transform="translate(-27.569 288.99)"/>
        <path id="Path_7667" data-name="Path 7667" class="cls-75" d="M128.26,194.625a2.04,2.04,0,1,1-2.836-.517C126.455,193.591,127.744,193.591,128.26,194.625Z" transform="translate(125.552 244.914)"/>
        <path id="Path_7668" data-name="Path 7668" class="cls-75" d="M114.26,189.125a2.04,2.04,0,1,1-2.836-.517C112.455,188.091,113.744,188.091,114.26,189.125Z" transform="translate(103.452 236.202)"/>
        <path id="Path_7669" data-name="Path 7669" class="cls-75" d="M297.56,208.925a2.04,2.04,0,1,1-2.836-.517C295.755,207.891,297.044,207.891,297.56,208.925Z" transform="translate(392.804 267.564)"/>
        <path id="Path_7670" data-name="Path 7670" class="cls-75" d="M259.96,190.782a2.04,2.04,0,1,1-2.836-.517A2.412,2.412,0,0,1,259.96,190.782Z" transform="translate(333.449 238.938)"/>
        <path id="Path_7671" data-name="Path 7671" class="cls-75" d="M255.56,199.825a2.04,2.04,0,1,1-2.836-.517C253.755,198.791,255.044,198.791,255.56,199.825Z" transform="translate(326.504 253.15)"/>
        <path id="Path_7672" data-name="Path 7672" class="cls-75" d="M301.559,305.782a2.04,2.04,0,1,1-2.836-.517A2.35,2.35,0,0,1,301.559,305.782Z" transform="translate(399.118 421.091)"/>
        <path id="Path_7673" data-name="Path 7673" class="cls-75" d="M314.16,286.182a2.04,2.04,0,1,1-2.837-.517A2.28,2.28,0,0,1,314.16,286.182Z" transform="translate(419.008 390.046)"/>
        <path id="Path_7674" data-name="Path 7674" class="cls-75" d="M298.56,305.293a2.04,2.04,0,1,1-2.836-.517A1.86,1.86,0,0,1,298.56,305.293Z" transform="translate(394.382 420.029)"/>
        <path id="Path_7675" data-name="Path 7675" class="cls-75" d="M326.259,151.893a2.04,2.04,0,1,1-2.836-.517A1.86,1.86,0,0,1,326.259,151.893Z" transform="translate(438.108 177.053)"/>
        <path id="Path_7676" data-name="Path 7676" class="cls-75" d="M295.06,134.682a2.04,2.04,0,1,1-2.836-.517A2.35,2.35,0,0,1,295.06,134.682Z" transform="translate(388.857 150.079)"/>
        <path id="Path_7677" data-name="Path 7677" class="cls-75" d="M305.26,154.482a2.04,2.04,0,1,1-2.836-.517A2.28,2.28,0,0,1,305.26,154.482Z" transform="translate(404.959 181.441)"/>
        <path id="Path_7678" data-name="Path 7678" class="cls-75" d="M326.259,151.893a2.04,2.04,0,1,1-2.836-.517A1.86,1.86,0,0,1,326.259,151.893Z" transform="translate(438.108 177.053)"/>
        <path id="Path_7679" data-name="Path 7679" class="cls-75" d="M337.26,127.682a2.04,2.04,0,1,1-2.837-.517A2.28,2.28,0,0,1,337.26,127.682Z" transform="translate(455.473 138.991)"/>
        <path id="Path_7680" data-name="Path 7680" class="cls-75" d="M342.36,156.993a2.04,2.04,0,1,1-2.837-.517A1.884,1.884,0,0,1,342.36,156.993Z" transform="translate(463.523 185.131)"/>
        <path id="Path_7681" data-name="Path 7681" class="cls-75" d="M297.959,37.993a2.04,2.04,0,1,1-2.836-.517A1.883,1.883,0,0,1,297.959,37.993Z" transform="translate(393.435 -3.358)"/>
        <path id="Path_7682" data-name="Path 7682" class="cls-75" d="M339.26,67.493a2.04,2.04,0,1,1-2.836-.517A1.829,1.829,0,0,1,339.26,67.493Z" transform="translate(458.63 43.368)"/>
        <path id="Path_7683" data-name="Path 7683" class="cls-75" d="M290.66,60.282a2.04,2.04,0,1,1-2.836-.517A2.28,2.28,0,0,1,290.66,60.282Z" transform="translate(381.911 32.234)"/>
        <path id="Path_7684" data-name="Path 7684" class="cls-75" d="M205.66,314.582a2.04,2.04,0,1,1-2.836-.517A2.412,2.412,0,0,1,205.66,314.582Z" transform="translate(247.733 435.029)"/>
        <path id="Path_7685" data-name="Path 7685" class="cls-75" d="M186.56,292.193a2.04,2.04,0,1,1-2.836-.517A1.884,1.884,0,0,1,186.56,292.193Z" transform="translate(217.583 399.279)"/>
        <path id="Path_7686" data-name="Path 7686" class="cls-75" d="M160.56,310.782a2.04,2.04,0,1,1-2.836-.517A2.28,2.28,0,0,1,160.56,310.782Z" transform="translate(176.54 429.01)"/>
        <path id="Path_7687" data-name="Path 7687" class="cls-75" d="M124.06,197.082a2.04,2.04,0,1,1-2.836-.517A2.28,2.28,0,0,1,124.06,197.082Z" transform="translate(118.922 248.917)"/>
        <path id="Path_7688" data-name="Path 7688" class="cls-75" d="M128.26,194.625a2.04,2.04,0,1,1-2.836-.517C126.455,193.591,127.744,193.591,128.26,194.625Z" transform="translate(125.552 244.914)"/>
        <path id="Path_7689" data-name="Path 7689" class="cls-75" d="M114.26,189.125a2.04,2.04,0,1,1-2.836-.517C112.455,188.091,113.744,188.091,114.26,189.125Z" transform="translate(103.452 236.202)"/>
        <path id="Path_7690" data-name="Path 7690" class="cls-75" d="M133.46,260.493a2.04,2.04,0,1,1-2.836-.517A1.884,1.884,0,0,1,133.46,260.493Z" transform="translate(133.761 349.068)"/>
        <path id="Path_7691" data-name="Path 7691" class="cls-75" d="M121.259,215.625a2.04,2.04,0,1,1-3.352,2.326,2.106,2.106,0,0,1,.516-2.842C119.455,214.591,120.744,214.591,121.259,215.625Z" transform="translate(114.502 278.176)"/>
        <path id="Path_7692" data-name="Path 7692" class="cls-75" d="M112.16,255.193a2.04,2.04,0,1,1-2.836-.517A1.884,1.884,0,0,1,112.16,255.193Z" transform="translate(100.137 340.674)"/>
        <path id="Path_7693" data-name="Path 7693" class="cls-75" d="M122.86,205.582a2.04,2.04,0,1,1-2.836-.517A2.412,2.412,0,0,1,122.86,205.582Z" transform="translate(117.028 262.38)"/>
        <path id="Path_7694" data-name="Path 7694" class="cls-75" d="M128.26,194.625a2.04,2.04,0,1,1-2.836-.517C126.455,193.591,127.744,193.591,128.26,194.625Z" transform="translate(125.552 244.914)"/>
        <path id="Path_7695" data-name="Path 7695" class="cls-75" d="M124.06,197.082a2.04,2.04,0,1,1-2.836-.517A2.28,2.28,0,0,1,124.06,197.082Z" transform="translate(118.922 248.917)"/>
        <path id="Path_7696" data-name="Path 7696" class="cls-75" d="M31.26,222.382a2.04,2.04,0,1,1-2.836-.517A2.412,2.412,0,0,1,31.26,222.382Z" transform="translate(-27.569 288.99)"/>
        <path id="Path_7697" data-name="Path 7697" class="cls-75" d="M200.86,150.293a2.04,2.04,0,1,1-2.836-.517A1.884,1.884,0,0,1,200.86,150.293Z" transform="translate(240.156 174.518)"/>
        <path id="Path_7698" data-name="Path 7698" class="cls-75" d="M208.86,184.093a2.04,2.04,0,1,1-2.836-.517A1.829,1.829,0,0,1,208.86,184.093Z" transform="translate(252.785 228.056)"/>
        <path id="Path_7699" data-name="Path 7699" class="cls-75" d="M175.46,181.582a2.04,2.04,0,1,1-2.836-.517A2.28,2.28,0,0,1,175.46,181.582Z" transform="translate(200.061 224.366)"/>
        <path id="Path_7700" data-name="Path 7700" class="cls-75" d="M200.66,279.993a2.04,2.04,0,1,1-2.836-.517A1.829,1.829,0,0,1,200.66,279.993Z" transform="translate(239.841 379.955)"/>
        <path id="Path_7701" data-name="Path 7701" class="cls-75" d="M165.56,268.525a2.04,2.04,0,1,1-2.836-.517C163.755,267.491,165.044,267.491,165.56,268.525Z" transform="translate(184.433 361.967)"/>
        <path id="Path_7702" data-name="Path 7702" class="cls-75" d="M172.96,286.793a2.04,2.04,0,1,1-2.836-.517A1.829,1.829,0,0,1,172.96,286.793Z" transform="translate(196.114 390.726)"/>
        <path id="Path_7703" data-name="Path 7703" class="cls-75" d="M218.56,35.125a2.04,2.04,0,1,1-3.352,2.326,2.106,2.106,0,0,1,.516-2.842C216.755,34.091,218.044,34.091,218.56,35.125Z" transform="translate(268.097 -7.725)"/>
        <path id="Path_7704" data-name="Path 7704" class="cls-75" d="M339.16,95.182a2.04,2.04,0,1,1-2.837-.517A2.28,2.28,0,0,1,339.16,95.182Z" transform="translate(458.472 87.513)"/>
        <path id="Path_7705" data-name="Path 7705" class="cls-75" d="M337.26,127.682a2.04,2.04,0,1,1-2.837-.517A2.28,2.28,0,0,1,337.26,127.682Z" transform="translate(455.473 138.991)"/>
        <path id="Path_7706" data-name="Path 7706" class="cls-75" d="M212.26,46.593a2.04,2.04,0,1,1-3.352,2.326,2.106,2.106,0,0,1,.516-2.842A1.829,1.829,0,0,1,212.26,46.593Z" transform="translate(258.152 10.264)"/>
        <path id="Path_7707" data-name="Path 7707" class="cls-75" d="M223.16,77.482a2.04,2.04,0,1,1-2.836-.517A2.412,2.412,0,0,1,223.16,77.482Z" transform="translate(275.358 59.478)"/>
        <path id="Path_7708" data-name="Path 7708" class="cls-75" d="M199.56,45.782a2.04,2.04,0,1,1-3.352,2.326,2.106,2.106,0,0,1,.516-2.842A2.412,2.412,0,0,1,199.56,45.782Z" transform="translate(238.104 9.267)"/>
        <path id="Path_7709" data-name="Path 7709" class="cls-75" d="M278.26,107.093a2.04,2.04,0,1,1-2.837-.517A1.86,1.86,0,0,1,278.26,107.093Z" transform="translate(362.337 106.092)"/>
        <path id="Path_7710" data-name="Path 7710" class="cls-75" d="M263.16,95.382a2.04,2.04,0,1,1-2.837-.517A2.28,2.28,0,0,1,263.16,95.382Z" transform="translate(338.501 87.83)"/>
        <path id="Path_7711" data-name="Path 7711" class="cls-75" d="M264.36,98.993a2.04,2.04,0,1,1-2.836-.517A1.884,1.884,0,0,1,264.36,98.993Z" transform="translate(340.395 93.262)"/>
        <path id="Path_7712" data-name="Path 7712" class="cls-75" d="M278.26,107.093a2.04,2.04,0,1,1-2.837-.517A1.86,1.86,0,0,1,278.26,107.093Z" transform="translate(362.337 106.092)"/>
        <path id="Path_7713" data-name="Path 7713" class="cls-75" d="M300.36,111.793a2.04,2.04,0,1,1-2.837-.517A1.829,1.829,0,0,1,300.36,111.793Z" transform="translate(397.224 113.537)"/>
        <path id="Path_7714" data-name="Path 7714" class="cls-75" d="M295.06,134.682a2.04,2.04,0,1,1-2.836-.517A2.35,2.35,0,0,1,295.06,134.682Z" transform="translate(388.857 150.079)"/>
        <path id="Path_7715" data-name="Path 7715" class="cls-75" d="M244.459,33.093a2.04,2.04,0,1,1-2.836-.517A1.86,1.86,0,0,1,244.459,33.093Z" transform="translate(308.982 -11.119)"/>
        <path id="Path_7716" data-name="Path 7716" class="cls-75" d="M272.16,45.393a2.04,2.04,0,1,1-2.837-.517A1.884,1.884,0,0,1,272.16,45.393Z" transform="translate(352.708 8.363)"/>
        <path id="Path_7717" data-name="Path 7717" class="cls-75" d="M252.66,47.825a2.04,2.04,0,1,1-2.836-.517C250.855,46.791,252.144,46.791,252.66,47.825Z" transform="translate(321.926 12.391)"/>
        <path id="Path_7718" data-name="Path 7718" class="cls-75" d="M244.459,33.093a2.04,2.04,0,1,1-2.836-.517A1.86,1.86,0,0,1,244.459,33.093Z" transform="translate(308.982 -11.119)"/>
        <path id="Path_7719" data-name="Path 7719" class="cls-75" d="M90.86,312.893a2.04,2.04,0,1,1-2.836-.517A1.86,1.86,0,0,1,90.86,312.893Z" transform="translate(66.514 432.067)"/>
        <path id="Path_7720" data-name="Path 7720" class="cls-75" d="M205.66,314.582a2.04,2.04,0,1,1-2.836-.517A2.412,2.412,0,0,1,205.66,314.582Z" transform="translate(247.733 435.029)"/>
        <path id="Path_7721" data-name="Path 7721" class="cls-75" d="M321.06,111.593a2.04,2.04,0,1,1-3.352,2.326,2.106,2.106,0,0,1,.516-2.842A1.829,1.829,0,0,1,321.06,111.593Z" transform="translate(429.9 113.22)"/>
        <path id="Path_7722" data-name="Path 7722" class="cls-75" d="M337.26,127.682a2.04,2.04,0,1,1-2.837-.517A2.28,2.28,0,0,1,337.26,127.682Z" transform="translate(455.473 138.991)"/>
        <path id="Path_7723" data-name="Path 7723" class="cls-75" d="M295.06,134.682a2.04,2.04,0,1,1-2.836-.517A2.35,2.35,0,0,1,295.06,134.682Z" transform="translate(388.857 150.079)"/>
        <path id="Path_7724" data-name="Path 7724" class="cls-75" d="M65.06,200.682a2.04,2.04,0,1,1-2.836-.517A2.28,2.28,0,0,1,65.06,200.682Z" transform="translate(25.787 254.619)"/>
        <path id="Path_7725" data-name="Path 7725" class="cls-75" d="M65.06,200.682a2.04,2.04,0,1,1-2.836-.517A2.28,2.28,0,0,1,65.06,200.682Z" transform="translate(25.787 254.619)"/>
        <path id="Path_7726" data-name="Path 7726" class="cls-75" d="M333.16,214.993a2.04,2.04,0,1,1-3.352,2.326,2.106,2.106,0,0,1,.516-2.842A1.884,1.884,0,0,1,333.16,214.993Z" transform="translate(449.001 276.999)"/>
        <path id="Path_7727" data-name="Path 7727" class="cls-75" d="M330.16,239.782a2.04,2.04,0,1,1-2.836-.517A2.28,2.28,0,0,1,330.16,239.782Z" transform="translate(444.265 316.551)"/>
        <path id="Path_7728" data-name="Path 7728" class="cls-75" d="M297.56,208.925a2.04,2.04,0,1,1-2.836-.517C295.755,207.891,297.044,207.891,297.56,208.925Z" transform="translate(392.804 267.564)"/>
        <path id="Path_7729" data-name="Path 7729" class="cls-75" d="M333.16,214.993a2.04,2.04,0,1,1-3.352,2.326,2.106,2.106,0,0,1,.516-2.842A1.884,1.884,0,0,1,333.16,214.993Z" transform="translate(449.001 276.999)"/>
        <path id="Path_7730" data-name="Path 7730" class="cls-75" d="M65.06,200.682a2.04,2.04,0,1,1-2.836-.517A2.28,2.28,0,0,1,65.06,200.682Z" transform="translate(25.787 254.619)"/>
        <path id="Path_7731" data-name="Path 7731" class="cls-75" d="M112.259,217.993a2.04,2.04,0,1,1-3.352,2.326,2.106,2.106,0,0,1,.516-2.842A1.829,1.829,0,0,1,112.259,217.993Z" transform="translate(100.295 281.751)"/>
        <path id="Path_7732" data-name="Path 7732" class="cls-75" d="M121.259,215.625a2.04,2.04,0,1,1-3.352,2.326,2.106,2.106,0,0,1,.516-2.842C119.455,214.591,120.744,214.591,121.259,215.625Z" transform="translate(114.502 278.176)"/>
        <path id="Path_7733" data-name="Path 7733" class="cls-75" d="M112.16,255.193a2.04,2.04,0,1,1-2.836-.517A1.884,1.884,0,0,1,112.16,255.193Z" transform="translate(100.137 340.674)"/>
        <path id="Path_7734" data-name="Path 7734" class="cls-75" d="M234.16,105.182a2.04,2.04,0,1,1-2.836-.517A2.28,2.28,0,0,1,234.16,105.182Z" transform="translate(292.723 103.353)"/>
        <path id="Path_7735" data-name="Path 7735" class="cls-75" d="M247.26,87.382a2.04,2.04,0,1,1-2.836-.517A2.412,2.412,0,0,1,247.26,87.382Z" transform="translate(313.402 75.159)"/>
        <path id="Path_7736" data-name="Path 7736" class="cls-75" d="M223.16,77.482a2.04,2.04,0,1,1-2.836-.517A2.412,2.412,0,0,1,223.16,77.482Z" transform="translate(275.358 59.478)"/>
        <path id="Path_7737" data-name="Path 7737" class="cls-75" d="M234.16,105.182a2.04,2.04,0,1,1-2.836-.517A2.28,2.28,0,0,1,234.16,105.182Z" transform="translate(292.723 103.353)"/>
        <path id="Path_7738" data-name="Path 7738" class="cls-75" d="M264.36,98.993a2.04,2.04,0,1,1-2.836-.517A1.884,1.884,0,0,1,264.36,98.993Z" transform="translate(340.395 93.262)"/>
        <path id="Path_7739" data-name="Path 7739" class="cls-75" d="M264.06,120.193a2.04,2.04,0,1,1-2.836-.517A1.86,1.86,0,0,1,264.06,120.193Z" transform="translate(339.922 126.842)"/>
        <path id="Path_7740" data-name="Path 7740" class="cls-75" d="M304.96,169.625a2.04,2.04,0,1,1-2.836-.517A2.067,2.067,0,0,1,304.96,169.625Z" transform="translate(404.485 205.315)"/>
        <path id="Path_7741" data-name="Path 7741" class="cls-75" d="M297.56,208.925a2.04,2.04,0,1,1-2.836-.517C295.755,207.891,297.044,207.891,297.56,208.925Z" transform="translate(392.804 267.564)"/>
        <path id="Path_7742" data-name="Path 7742" class="cls-75" d="M259.96,190.782a2.04,2.04,0,1,1-2.836-.517A2.412,2.412,0,0,1,259.96,190.782Z" transform="translate(333.449 238.938)"/>
        <path id="Path_7743" data-name="Path 7743" class="cls-75" d="M304.96,169.625a2.04,2.04,0,1,1-2.836-.517A2.067,2.067,0,0,1,304.96,169.625Z" transform="translate(404.485 205.315)"/>
        <path id="Path_7744" data-name="Path 7744" class="cls-75" d="M305.26,154.482a2.04,2.04,0,1,1-2.836-.517A2.28,2.28,0,0,1,305.26,154.482Z" transform="translate(404.959 181.441)"/>
        <path id="Path_7745" data-name="Path 7745" class="cls-75" d="M258.359,146.882a2.04,2.04,0,1,1-3.352,2.326,2.106,2.106,0,0,1,.516-2.842A2.28,2.28,0,0,1,258.359,146.882Z" transform="translate(330.924 169.403)"/>
        <path id="Path_7746" data-name="Path 7746" class="cls-75" d="M230.16,170.582a2.04,2.04,0,1,1-2.836-.517A2.28,2.28,0,0,1,230.16,170.582Z" transform="translate(286.408 206.942)"/>
        <path id="Path_7747" data-name="Path 7747" class="cls-75" d="M220.66,186.693a2.04,2.04,0,1,1-2.836-.517A1.829,1.829,0,0,1,220.66,186.693Z" transform="translate(271.412 232.174)"/>
        <path id="Path_7748" data-name="Path 7748" class="cls-75" d="M208.86,184.093a2.04,2.04,0,1,1-2.836-.517A1.829,1.829,0,0,1,208.86,184.093Z" transform="translate(252.785 228.056)"/>
        <path id="Path_7749" data-name="Path 7749" class="cls-75" d="M230.16,170.582a2.04,2.04,0,1,1-2.836-.517A2.28,2.28,0,0,1,230.16,170.582Z" transform="translate(286.408 206.942)"/>
        <path id="Path_7750" data-name="Path 7750" class="cls-75" d="M214.26,159.193a2.04,2.04,0,1,1-2.836-.517A1.884,1.884,0,0,1,214.26,159.193Z" transform="translate(261.309 188.616)"/>
        <path id="Path_7751" data-name="Path 7751" class="cls-75" d="M208.86,184.093a2.04,2.04,0,1,1-2.836-.517A1.829,1.829,0,0,1,208.86,184.093Z" transform="translate(252.785 228.056)"/>
        <path id="Path_7752" data-name="Path 7752" class="cls-75" d="M230.16,170.582a2.04,2.04,0,1,1-2.836-.517A2.28,2.28,0,0,1,230.16,170.582Z" transform="translate(286.408 206.942)"/>
        <path id="Path_7753" data-name="Path 7753" class="cls-75" d="M236.46,170.393a2.04,2.04,0,1,1-2.836-.517A1.829,1.829,0,0,1,236.46,170.393Z" transform="translate(296.353 206.356)"/>
        <path id="Path_7754" data-name="Path 7754" class="cls-75" d="M220.66,186.693a2.04,2.04,0,1,1-2.836-.517A1.829,1.829,0,0,1,220.66,186.693Z" transform="translate(271.412 232.174)"/>
        <path id="Path_7755" data-name="Path 7755" class="cls-75" d="M230.16,170.582a2.04,2.04,0,1,1-2.836-.517A2.28,2.28,0,0,1,230.16,170.582Z" transform="translate(286.408 206.942)"/>
        <path id="Path_7756" data-name="Path 7756" class="cls-75" d="M221.06,145.082a2.04,2.04,0,1,1-3.352,2.326,2.106,2.106,0,0,1,.516-2.842A2.28,2.28,0,0,1,221.06,145.082Z" transform="translate(272.043 166.552)"/>
        <path id="Path_7757" data-name="Path 7757" class="cls-75" d="M236.46,170.393a2.04,2.04,0,1,1-2.836-.517A1.829,1.829,0,0,1,236.46,170.393Z" transform="translate(296.353 206.356)"/>
        <path id="Path_7758" data-name="Path 7758" class="cls-75" d="M152.16,271.593a2.04,2.04,0,1,1-2.836-.517A1.829,1.829,0,0,1,152.16,271.593Z" transform="translate(163.28 366.65)"/>
        <path id="Path_7759" data-name="Path 7759" class="cls-75" d="M172.96,286.793a2.04,2.04,0,1,1-2.836-.517A1.829,1.829,0,0,1,172.96,286.793Z" transform="translate(196.114 390.726)"/>
        <path id="Path_7760" data-name="Path 7760" class="cls-75" d="M148.66,292.625a2.04,2.04,0,1,1-2.836-.517C146.854,291.591,148.144,291.591,148.66,292.625Z" transform="translate(157.755 400.14)"/>
        <path id="Path_7761" data-name="Path 7761" class="cls-75" d="M82.56,246.382a2.04,2.04,0,1,1-3.352,2.326,2.106,2.106,0,0,1,.516-2.842A2.35,2.35,0,0,1,82.56,246.382Z" transform="translate(53.412 327.005)"/>
        <path id="Path_7762" data-name="Path 7762" class="cls-75" d="M91.56,230.782a2.04,2.04,0,1,1-2.836-.517A2.28,2.28,0,0,1,91.56,230.782Z" transform="translate(67.619 302.295)"/>
        <path id="Path_7763" data-name="Path 7763" class="cls-75" d="M67.36,237.082a2.04,2.04,0,1,1-2.836-.517A2.35,2.35,0,0,1,67.36,237.082Z" transform="translate(29.418 312.274)"/>
        <path id="Path_7764" data-name="Path 7764" class="cls-75" d="M64.36,311.882a2.04,2.04,0,1,1-2.836-.517A2.28,2.28,0,0,1,64.36,311.882Z" transform="translate(24.682 430.753)"/>
        <path id="Path_7765" data-name="Path 7765" class="cls-75" d="M90.86,312.893a2.04,2.04,0,1,1-2.836-.517A1.86,1.86,0,0,1,90.86,312.893Z" transform="translate(66.514 432.067)"/>
        <path id="Path_7766" data-name="Path 7766" class="cls-75" d="M64.36,311.882a2.04,2.04,0,1,1-2.836-.517A2.28,2.28,0,0,1,64.36,311.882Z" transform="translate(24.682 430.753)"/>
        <path id="Path_7767" data-name="Path 7767" class="cls-75" d="M89.86,283.493a2.04,2.04,0,1,1-2.836-.517A1.86,1.86,0,0,1,89.86,283.493Z" transform="translate(64.935 385.499)"/>
        <path id="Path_7768" data-name="Path 7768" class="cls-75" d="M90.86,312.893a2.04,2.04,0,1,1-2.836-.517A1.86,1.86,0,0,1,90.86,312.893Z" transform="translate(66.514 432.067)"/>
        <path id="Path_7769" data-name="Path 7769" class="cls-75" d="M295.06,276.225a2.04,2.04,0,1,1-2.836-.517C293.255,275.191,294.544,275.191,295.06,276.225Z" transform="translate(388.857 374.163)"/>
        <path id="Path_7770" data-name="Path 7770" class="cls-75" d="M298.56,305.293a2.04,2.04,0,1,1-2.836-.517A1.86,1.86,0,0,1,298.56,305.293Z" transform="translate(394.382 420.029)"/>
        <path id="Path_7771" data-name="Path 7771" class="cls-75" d="M271.96,279.693a2.04,2.04,0,1,1-2.836-.517A1.829,1.829,0,0,1,271.96,279.693Z" transform="translate(352.392 379.48)"/>
        <path id="Path_7772" data-name="Path 7772" class="cls-75" d="M295.06,276.225a2.04,2.04,0,1,1-2.836-.517C293.255,275.191,294.544,275.191,295.06,276.225Z" transform="translate(388.857 374.163)"/>
        <path id="Path_7773" data-name="Path 7773" class="cls-75" d="M314.16,286.182a2.04,2.04,0,1,1-2.837-.517A2.28,2.28,0,0,1,314.16,286.182Z" transform="translate(419.008 390.046)"/>
        <path id="Path_7774" data-name="Path 7774" class="cls-75" d="M298.56,305.293a2.04,2.04,0,1,1-2.836-.517A1.86,1.86,0,0,1,298.56,305.293Z" transform="translate(394.382 420.029)"/>
        <path id="Path_7775" data-name="Path 7775" class="cls-75" d="M145.76,185.625a2.04,2.04,0,1,1-2.836-.517C143.955,184.591,145.244,184.591,145.76,185.625Z" transform="translate(153.177 230.658)"/>
        <path id="Path_7776" data-name="Path 7776" class="cls-75" d="M128.26,194.625a2.04,2.04,0,1,1-2.836-.517C126.455,193.591,127.744,193.591,128.26,194.625Z" transform="translate(125.552 244.914)"/>
        <path id="Path_7777" data-name="Path 7777" class="cls-75" d="M145.76,185.625a2.04,2.04,0,1,1-2.836-.517C143.955,184.591,145.244,184.591,145.76,185.625Z" transform="translate(153.177 230.658)"/>
        <path id="Path_7778" data-name="Path 7778" class="cls-75" d="M253.359,267.482a2.04,2.04,0,1,1-2.836-.517A2.28,2.28,0,0,1,253.359,267.482Z" transform="translate(323.031 360.426)"/>
        <path id="Path_7779" data-name="Path 7779" class="cls-75" d="M271.96,279.693a2.04,2.04,0,1,1-2.836-.517A1.829,1.829,0,0,1,271.96,279.693Z" transform="translate(352.392 379.48)"/>
        <path id="Path_7780" data-name="Path 7780" class="cls-75" d="M244.96,311.082a2.04,2.04,0,1,1-2.836-.517A2.28,2.28,0,0,1,244.96,311.082Z" transform="translate(309.771 429.486)"/>
        <path id="Path_7781" data-name="Path 7781" class="cls-75" d="M190.06,244.093a2.04,2.04,0,1,1-2.836-.517A1.829,1.829,0,0,1,190.06,244.093Z" transform="translate(223.108 323.092)"/>
        <path id="Path_7782" data-name="Path 7782" class="cls-75" d="M174.56,222.625a2.04,2.04,0,1,1-2.836-.517A2.1,2.1,0,0,1,174.56,222.625Z" transform="translate(198.64 289.264)"/>
        <path id="Path_7783" data-name="Path 7783" class="cls-75" d="M165.56,268.525a2.04,2.04,0,1,1-2.836-.517C163.755,267.491,165.044,267.491,165.56,268.525Z" transform="translate(184.433 361.967)"/>
        <path id="Path_7784" data-name="Path 7784" class="cls-75" d="M233.46,270.093a2.04,2.04,0,1,1-2.836-.517A1.86,1.86,0,0,1,233.46,270.093Z" transform="translate(291.617 364.274)"/>
        <path id="Path_7785" data-name="Path 7785" class="cls-75" d="M244.96,232.582a2.04,2.04,0,1,1-2.836-.517A2.28,2.28,0,0,1,244.96,232.582Z" transform="translate(309.771 305.146)"/>
        <path id="Path_7786" data-name="Path 7786" class="cls-75" d="M216.359,242.793a2.04,2.04,0,1,1-2.836-.517A1.884,1.884,0,0,1,216.359,242.793Z" transform="translate(264.624 321.033)"/>
        <path id="Path_7787" data-name="Path 7787" class="cls-75" d="M302.46,93.393a2.04,2.04,0,1,1-2.836-.517A1.884,1.884,0,0,1,302.46,93.393Z" transform="translate(400.539 84.392)"/>
        <path id="Path_7788" data-name="Path 7788" class="cls-75" d="M290.66,60.282a2.04,2.04,0,1,1-2.836-.517A2.28,2.28,0,0,1,290.66,60.282Z" transform="translate(381.911 32.234)"/>
        <path id="Path_7789" data-name="Path 7789" class="cls-75" d="M269.06,73.193a2.04,2.04,0,1,1-2.836-.517A1.884,1.884,0,0,1,269.06,73.193Z" transform="translate(347.814 52.397)"/>
        <path id="Path_7790" data-name="Path 7790" class="cls-75" d="M302.46,93.393a2.04,2.04,0,1,1-2.836-.517A1.884,1.884,0,0,1,302.46,93.393Z" transform="translate(400.539 84.392)"/>
        <path id="Path_7791" data-name="Path 7791" class="cls-75" d="M315.96,106.282a2.04,2.04,0,1,1-2.836-.517A2.28,2.28,0,0,1,315.96,106.282Z" transform="translate(421.849 105.095)"/>
        <path id="Path_7792" data-name="Path 7792" class="cls-75" d="M300.36,111.793a2.04,2.04,0,1,1-2.837-.517A1.829,1.829,0,0,1,300.36,111.793Z" transform="translate(397.224 113.537)"/>
        <path id="Path_7793" data-name="Path 7793" class="cls-75" d="M344.66,174.482a2.04,2.04,0,1,1-2.836-.517A2.28,2.28,0,0,1,344.66,174.482Z" transform="translate(467.154 213.12)"/>
        <path id="Path_7794" data-name="Path 7794" class="cls-75" d="M339.16,24.782a2.04,2.04,0,1,1-2.837-.517A2.412,2.412,0,0,1,339.16,24.782Z" transform="translate(458.472 -23.996)"/>
        <path id="Path_7795" data-name="Path 7795" class="cls-75" d="M301.559,305.782a2.04,2.04,0,1,1-2.836-.517A2.35,2.35,0,0,1,301.559,305.782Z" transform="translate(399.118 421.091)"/>
        <path id="Path_7796" data-name="Path 7796" class="cls-75" d="M136.96,212.893a2.04,2.04,0,1,1-2.836-.517A1.884,1.884,0,0,1,136.96,212.893Z" transform="translate(139.286 273.673)"/>
        <path id="Path_7797" data-name="Path 7797" class="cls-75" d="M122.86,205.582a2.04,2.04,0,1,1-2.836-.517A2.412,2.412,0,0,1,122.86,205.582Z" transform="translate(117.028 262.38)"/>
        <path id="Path_7798" data-name="Path 7798" class="cls-75" d="M121.259,215.625a2.04,2.04,0,1,1-3.352,2.326,2.106,2.106,0,0,1,.516-2.842C119.455,214.591,120.744,214.591,121.259,215.625Z" transform="translate(114.502 278.176)"/>
        <path id="Path_7799" data-name="Path 7799" class="cls-75" d="M136.96,212.893a2.04,2.04,0,1,1-2.836-.517A1.884,1.884,0,0,1,136.96,212.893Z" transform="translate(139.286 273.673)"/>
        <path id="Path_7800" data-name="Path 7800" class="cls-75" d="M128.26,194.625a2.04,2.04,0,1,1-2.836-.517C126.455,193.591,127.744,193.591,128.26,194.625Z" transform="translate(125.552 244.914)"/>
        <path id="Path_7801" data-name="Path 7801" class="cls-75" d="M122.86,205.582a2.04,2.04,0,1,1-2.836-.517A2.412,2.412,0,0,1,122.86,205.582Z" transform="translate(117.028 262.38)"/>
        <path id="Path_7802" data-name="Path 7802" class="cls-75" d="M136.96,212.893a2.04,2.04,0,1,1-2.836-.517A1.884,1.884,0,0,1,136.96,212.893Z" transform="translate(139.286 273.673)"/>
        <path id="Path_7803" data-name="Path 7803" class="cls-75" d="M145.76,185.625a2.04,2.04,0,1,1-2.836-.517C143.955,184.591,145.244,184.591,145.76,185.625Z" transform="translate(153.177 230.658)"/>
        <path id="Path_7804" data-name="Path 7804" class="cls-75" d="M128.26,194.625a2.04,2.04,0,1,1-2.836-.517C126.455,193.591,127.744,193.591,128.26,194.625Z" transform="translate(125.552 244.914)"/>
        <path id="Path_7805" data-name="Path 7805" class="cls-75" d="M136.96,212.893a2.04,2.04,0,1,1-2.836-.517A1.884,1.884,0,0,1,136.96,212.893Z" transform="translate(139.286 273.673)"/>
        <path id="Path_7806" data-name="Path 7806" class="cls-75" d="M179.459,209.782a2.04,2.04,0,1,1-2.836-.517A2.412,2.412,0,0,1,179.459,209.782Z" transform="translate(206.375 269.033)"/>
        <path id="Path_7807" data-name="Path 7807" class="cls-75" d="M174.56,222.625a2.04,2.04,0,1,1-2.836-.517A2.1,2.1,0,0,1,174.56,222.625Z" transform="translate(198.64 289.264)"/>
        <path id="Path_7808" data-name="Path 7808" class="cls-75" d="M121.86,300.725a2.04,2.04,0,1,1-2.836-.517C120.055,299.691,121.344,299.691,121.86,300.725Z" transform="translate(115.449 412.969)"/>
        <path id="Path_7809" data-name="Path 7809" class="cls-75" d="M131.26,287.682a2.04,2.04,0,1,1-2.836-.517A2.28,2.28,0,0,1,131.26,287.682Z" transform="translate(130.288 392.421)"/>
        <path id="Path_7810" data-name="Path 7810" class="cls-75" d="M139.56,313.782a2.04,2.04,0,1,1-2.836-.517A2.412,2.412,0,0,1,139.56,313.782Z" transform="translate(143.39 433.762)"/>
        <path id="Path_7811" data-name="Path 7811" class="cls-75" d="M93.36,283.593a2.04,2.04,0,1,1-2.836-.517A1.884,1.884,0,0,1,93.36,283.593Z" transform="translate(70.46 385.657)"/>
        <path id="Path_7812" data-name="Path 7812" class="cls-75" d="M121.86,300.725a2.04,2.04,0,1,1-2.836-.517C120.055,299.691,121.344,299.691,121.86,300.725Z" transform="translate(115.449 412.969)"/>
        <path id="Path_7813" data-name="Path 7813" class="cls-75" d="M100.46,305.993a2.04,2.04,0,1,1-3.352,2.326,2.106,2.106,0,0,1,.516-2.842A1.86,1.86,0,0,1,100.46,305.993Z" transform="translate(81.668 421.138)"/>
        <path id="Path_7814" data-name="Path 7814" class="cls-75" d="M93.36,283.593a2.04,2.04,0,1,1-2.836-.517A1.884,1.884,0,0,1,93.36,283.593Z" transform="translate(70.46 385.657)"/>
        <path id="Path_7815" data-name="Path 7815" class="cls-75" d="M86.06,249.882a2.04,2.04,0,1,1-2.836-.517A2.35,2.35,0,0,1,86.06,249.882Z" transform="translate(58.937 332.549)"/>
        <path id="Path_7816" data-name="Path 7816" class="cls-75" d="M89.86,283.493a2.04,2.04,0,1,1-2.836-.517A1.86,1.86,0,0,1,89.86,283.493Z" transform="translate(64.935 385.499)"/>
        <path id="Path_7817" data-name="Path 7817" class="cls-75" d="M93.36,283.593a2.04,2.04,0,1,1-2.836-.517A1.884,1.884,0,0,1,93.36,283.593Z" transform="translate(70.46 385.657)"/>
        <path id="Path_7818" data-name="Path 7818" class="cls-75" d="M131.26,287.682a2.04,2.04,0,1,1-2.836-.517A2.28,2.28,0,0,1,131.26,287.682Z" transform="translate(130.288 392.421)"/>
        <path id="Path_7819" data-name="Path 7819" class="cls-75" d="M121.86,300.725a2.04,2.04,0,1,1-2.836-.517C120.055,299.691,121.344,299.691,121.86,300.725Z" transform="translate(115.449 412.969)"/>
        <path id="Path_7820" data-name="Path 7820" class="cls-75" d="M131.06,275.225a2.04,2.04,0,1,1-2.836-.517A2.1,2.1,0,0,1,131.06,275.225Z" transform="translate(129.972 372.579)"/>
        <path id="Path_7821" data-name="Path 7821" class="cls-75" d="M152.16,271.593a2.04,2.04,0,1,1-2.836-.517A1.829,1.829,0,0,1,152.16,271.593Z" transform="translate(163.28 366.65)"/>
        <path id="Path_7822" data-name="Path 7822" class="cls-75" d="M133.46,260.493a2.04,2.04,0,1,1-2.836-.517A1.884,1.884,0,0,1,133.46,260.493Z" transform="translate(133.761 349.068)"/>
        <path id="Path_7823" data-name="Path 7823" class="cls-75" d="M93.06,207.193a2.04,2.04,0,1,1-2.836-.517A1.829,1.829,0,0,1,93.06,207.193Z" transform="translate(69.987 264.645)"/>
        <path id="Path_7824" data-name="Path 7824" class="cls-75" d="M112.259,217.993a2.04,2.04,0,1,1-3.352,2.326,2.106,2.106,0,0,1,.516-2.842A1.829,1.829,0,0,1,112.259,217.993Z" transform="translate(100.295 281.751)"/>
        <path id="Path_7825" data-name="Path 7825" class="cls-75" d="M91.56,230.782a2.04,2.04,0,1,1-2.836-.517A2.28,2.28,0,0,1,91.56,230.782Z" transform="translate(67.619 302.295)"/>
        <path id="Path_7826" data-name="Path 7826" class="cls-75" d="M93.06,207.193a2.04,2.04,0,1,1-2.836-.517A1.829,1.829,0,0,1,93.06,207.193Z" transform="translate(69.987 264.645)"/>
        <path id="Path_7827" data-name="Path 7827" class="cls-75" d="M114.26,189.125a2.04,2.04,0,1,1-2.836-.517C112.455,188.091,113.744,188.091,114.26,189.125Z" transform="translate(103.452 236.202)"/>
        <path id="Path_7828" data-name="Path 7828" class="cls-75" d="M113.56,188.082a2.04,2.04,0,1,1-2.836-.517A2.28,2.28,0,0,1,113.56,188.082Z" transform="translate(102.347 234.661)"/>
        <path id="Path_7829" data-name="Path 7829" class="cls-75" d="M217.96,275.193a2.04,2.04,0,1,1-2.836-.517A1.884,1.884,0,0,1,217.96,275.193Z" transform="translate(267.15 372.352)"/>
        <path id="Path_7830" data-name="Path 7830" class="cls-75" d="M200.66,279.993a2.04,2.04,0,1,1-2.836-.517A1.829,1.829,0,0,1,200.66,279.993Z" transform="translate(239.841 379.955)"/>
        <path id="Path_7831" data-name="Path 7831" class="cls-75" d="M208.86,314.193a2.04,2.04,0,1,1-3.352,2.326,2.106,2.106,0,0,1,.516-2.842A1.86,1.86,0,0,1,208.86,314.193Z" transform="translate(252.785 434.126)"/>
        <path id="Path_7832" data-name="Path 7832" class="cls-75" d="M319.86,295.093a2.04,2.04,0,1,1-2.837-.517A1.86,1.86,0,0,1,319.86,295.093Z" transform="translate(428.006 403.873)"/>
        <path id="Path_7833" data-name="Path 7833" class="cls-75" d="M301.559,305.782a2.04,2.04,0,1,1-2.836-.517A2.35,2.35,0,0,1,301.559,305.782Z" transform="translate(399.118 421.091)"/>
        <path id="Path_7834" data-name="Path 7834" class="cls-75" d="M281.06,258.225a2.04,2.04,0,1,1-3.352,2.326,2.106,2.106,0,0,1,.516-2.842A2.058,2.058,0,0,1,281.06,258.225Z" transform="translate(366.757 345.652)"/>
        <path id="Path_7835" data-name="Path 7835" class="cls-75" d="M301.76,271.082a2.04,2.04,0,1,1-2.836-.517A2.412,2.412,0,0,1,301.76,271.082Z" transform="translate(399.434 366.128)"/>
        <path id="Path_7836" data-name="Path 7836" class="cls-75" d="M295.06,276.225a2.04,2.04,0,1,1-2.836-.517C293.255,275.191,294.544,275.191,295.06,276.225Z" transform="translate(388.857 374.163)"/>
        <path id="Path_7837" data-name="Path 7837" class="cls-75" d="M260.96,91.582a2.04,2.04,0,1,1-2.836-.517A2.28,2.28,0,0,1,260.96,91.582Z" transform="translate(335.028 81.811)"/>
        <path id="Path_7838" data-name="Path 7838" class="cls-75" d="M269.06,73.193a2.04,2.04,0,1,1-2.836-.517A1.884,1.884,0,0,1,269.06,73.193Z" transform="translate(347.814 52.397)"/>
        <path id="Path_7839" data-name="Path 7839" class="cls-75" d="M247.26,87.382a2.04,2.04,0,1,1-2.836-.517A2.412,2.412,0,0,1,247.26,87.382Z" transform="translate(313.402 75.159)"/>
        <path id="Path_7840" data-name="Path 7840" class="cls-75" d="M260.96,91.582a2.04,2.04,0,1,1-2.836-.517A2.28,2.28,0,0,1,260.96,91.582Z" transform="translate(335.028 81.811)"/>
        <path id="Path_7841" data-name="Path 7841" class="cls-75" d="M269.06,73.193a2.04,2.04,0,1,1-2.836-.517A1.884,1.884,0,0,1,269.06,73.193Z" transform="translate(347.814 52.397)"/>
        <path id="Path_7842" data-name="Path 7842" class="cls-75" d="M263.16,95.382a2.04,2.04,0,1,1-2.837-.517A2.28,2.28,0,0,1,263.16,95.382Z" transform="translate(338.501 87.83)"/>
        <path id="Path_7843" data-name="Path 7843" class="cls-75" d="M75.76,278.682a2.04,2.04,0,1,1-2.836-.517A2.28,2.28,0,0,1,75.76,278.682Z" transform="translate(42.678 378.166)"/>
        <path id="Path_7844" data-name="Path 7844" class="cls-75" d="M57.86,295.882a2.04,2.04,0,1,1-2.836-.517A2.28,2.28,0,0,1,57.86,295.882Z" transform="translate(14.421 405.41)"/>
        <path id="Path_7845" data-name="Path 7845" class="cls-75" d="M64.36,311.882a2.04,2.04,0,1,1-2.836-.517A2.28,2.28,0,0,1,64.36,311.882Z" transform="translate(24.682 430.753)"/>
        <path id="Path_7846" data-name="Path 7846" class="cls-75" d="M75.76,278.682a2.04,2.04,0,1,1-2.836-.517A2.28,2.28,0,0,1,75.76,278.682Z" transform="translate(42.678 378.166)"/>
        <path id="Path_7847" data-name="Path 7847" class="cls-75" d="M89.86,283.493a2.04,2.04,0,1,1-2.836-.517A1.86,1.86,0,0,1,89.86,283.493Z" transform="translate(64.935 385.499)"/>
        <path id="Path_7848" data-name="Path 7848" class="cls-75" d="M64.36,311.882a2.04,2.04,0,1,1-2.836-.517A2.28,2.28,0,0,1,64.36,311.882Z" transform="translate(24.682 430.753)"/>
        <path id="Path_7849" data-name="Path 7849" class="cls-75" d="M309.76,158.693a2.04,2.04,0,1,1-2.836-.517A1.829,1.829,0,0,1,309.76,158.693Z" transform="translate(412.062 187.824)"/>
        <path id="Path_7850" data-name="Path 7850" class="cls-75" d="M305.26,154.482a2.04,2.04,0,1,1-2.836-.517A2.28,2.28,0,0,1,305.26,154.482Z" transform="translate(404.959 181.441)"/>
        <path id="Path_7851" data-name="Path 7851" class="cls-75" d="M304.96,169.625a2.04,2.04,0,1,1-2.836-.517A2.067,2.067,0,0,1,304.96,169.625Z" transform="translate(404.485 205.315)"/>
        <path id="Path_7852" data-name="Path 7852" class="cls-75" d="M309.76,158.693a2.04,2.04,0,1,1-2.836-.517A1.829,1.829,0,0,1,309.76,158.693Z" transform="translate(412.062 187.824)"/>
        <path id="Path_7853" data-name="Path 7853" class="cls-75" d="M326.259,151.893a2.04,2.04,0,1,1-2.836-.517A1.86,1.86,0,0,1,326.259,151.893Z" transform="translate(438.108 177.053)"/>
        <path id="Path_7854" data-name="Path 7854" class="cls-75" d="M305.26,154.482a2.04,2.04,0,1,1-2.836-.517A2.28,2.28,0,0,1,305.26,154.482Z" transform="translate(404.959 181.441)"/>
        <path id="Path_7855" data-name="Path 7855" class="cls-75" d="M214.76,187.893a2.04,2.04,0,1,1-2.836-.517A1.884,1.884,0,0,1,214.76,187.893Z" transform="translate(262.098 234.075)"/>
        <path id="Path_7856" data-name="Path 7856" class="cls-75" d="M220.66,186.693a2.04,2.04,0,1,1-2.836-.517A1.829,1.829,0,0,1,220.66,186.693Z" transform="translate(271.412 232.174)"/>
        <path id="Path_7857" data-name="Path 7857" class="cls-75" d="M208.86,184.093a2.04,2.04,0,1,1-2.836-.517A1.829,1.829,0,0,1,208.86,184.093Z" transform="translate(252.785 228.056)"/>
        <path id="Path_7858" data-name="Path 7858" class="cls-75" d="M214.76,187.893a2.04,2.04,0,1,1-2.836-.517A1.884,1.884,0,0,1,214.76,187.893Z" transform="translate(262.098 234.075)"/>
        <path id="Path_7859" data-name="Path 7859" class="cls-75" d="M208.86,184.093a2.04,2.04,0,1,1-2.836-.517A1.829,1.829,0,0,1,208.86,184.093Z" transform="translate(252.785 228.056)"/>
        <path id="Path_7860" data-name="Path 7860" class="cls-75" d="M179.459,209.782a2.04,2.04,0,1,1-2.836-.517A2.412,2.412,0,0,1,179.459,209.782Z" transform="translate(206.375 269.033)"/>
      </g>
    </g>
    <g id="Group_3397" data-name="Group 3397" transform="translate(91.023 97.931)">
      <g id="triangle36_20_" class="cls-86" transform="translate(106.753 429.192)">
        <path id="Path_7861" data-name="Path 7861" class="cls-75" d="M207.176,478.673,76.7,446.115l.258-.775L132.655,204ZM78.5,445.081l126.35,31.524L132.913,210.46Z" transform="translate(-76.7 -204)"/>
      </g>
      <g id="triangle36_16_" class="cls-88" transform="translate(487.865 35.142)">
        <path id="Path_7862" data-name="Path 7862" class="cls-75" d="M428.722,258.473h-1.031L224.5,244.262l1.031-1.292L379.472,51.5Zm-201.128-15.5L426.66,256.923,378.44,55.376Z" transform="translate(-224.5 -51.5)"/>
      </g>
      <g id="triangle36_14_" class="cls-96" transform="translate(106.753 431.001)">
        <path id="Path_7863" data-name="Path 7863" class="cls-75" d="M76.7,451.466l.774-232.555L133.686,204.7Zm2.579-231L78.5,437.771l53.119-230.746Z" transform="translate(-76.7 -204.7)"/>
      </g>
      <g id="Group_3389" data-name="Group 3389" class="cls-101" transform="translate(688.993 189.403)">
        <path id="Path_7864" data-name="Path 7864" class="cls-75" d="M375.989,179.674h-.516L302.5,163.654,386.046,111.2v51.937ZM306.626,162.62l68.59,15.245,9.283-15.5V113.784Z" transform="translate(-302.5 -111.2)"/>
      </g>
      <g id="Group_3390" data-name="Group 3390" class="cls-102" transform="translate(690.024 89.404)">
        <path id="Path_7865" data-name="Path 7865" class="cls-75" d="M302.9,225.986,335.648,72.5l49.766,36.434v65.374l-.258.258Zm33.521-150.9L304.963,222.627l78.646-49.353V109.709Z" transform="translate(-302.9 -72.5)"/>
      </g>
      <g id="Group_3391" data-name="Group 3391" class="cls-103" transform="translate(758.099 237.981)">
        <path id="Path_7866" data-name="Path 7866" class="cls-75" d="M329.3,154.547,343.74,130v9.3Zm12.893-18.863-4.641,7.752,4.641-4.91Z" transform="translate(-329.3 -130)"/>
      </g>
      <g id="Group_3392" data-name="Group 3392" class="cls-104" transform="translate(761.193)">
        <path id="Path_7867" data-name="Path 7867" class="cls-75" d="M341.846,69.682,330.5,37.9l11.346,18.6Zm-4.9-18.088,3.094,9.044V57.021Z" transform="translate(-330.5 -37.9)"/>
      </g>
      <g id="Group_3393" data-name="Group 3393" class="cls-110" transform="translate(435.004 472.602)">
        <path id="Path_7868" data-name="Path 7868" class="cls-75" d="M230.044,470.15H204l.258-1.033L252.477,220.8l95.149,131.264-.516.517Zm-24.239-1.55H229.27L345.563,352.064l-92.313-127.13Z" transform="translate(-204 -220.8)"/>
      </g>
      <g id="Group_3394" data-name="Group 3394" class="cls-111" transform="translate(734.634 582.161)">
        <path id="Path_7869" data-name="Path 7869" class="cls-75" d="M358.105,336.842l-37.9-60.464,37.9-13.178Zm-35.584-59.689,34.037,54.263V265.267Z" transform="translate(-320.2 -263.2)"/>
      </g>
      <g id="triangle36_13_" class="cls-115" transform="translate(161.934 370.795)">
        <path id="Path_7870" data-name="Path 7870" class="cls-75" d="M98.1,243.931l9.541-62.531,88.187,44.7Zm10.83-59.947-8.767,58.139,90.766-16.537Z" transform="translate(-98.1 -181.4)"/>
      </g>
      <g id="triangle36_10_" class="cls-118" transform="translate(252.184 396.635)">
        <path id="Path_7871" data-name="Path 7871" class="cls-75" d="M365.171,270.21,133.1,209.488,395.34,191.4ZM142.9,210.521,364.4,268.4l28.88-75.193Z" transform="translate(-133.1 -191.4)"/>
      </g>
      <g id="Group_3395" data-name="Group 3395" class="cls-120" transform="translate(232.071 701.539)">
        <path id="Path_7872" data-name="Path 7872" class="cls-75" d="M162.947,329.813H125.3l3.352-20.413Zm-35.584-1.55h29.911l-27.333-16.279Z" transform="translate(-125.3 -309.4)"/>
      </g>
      <g id="Group_3396" data-name="Group 3396" class="cls-121" transform="translate(0 383.973)">
        <path id="Path_7873" data-name="Path 7873" class="cls-75" d="M35.3,317.506V186.5l110.1,62.015Zm1.547-128.422V314.663l105.463-66.149Z" transform="translate(-35.3 -186.5)"/>
      </g>
      <g id="triangle36_6_" class="cls-129" transform="translate(687.188 239.79)">
        <path id="Path_7874" data-name="Path 7874" class="cls-75" d="M340.736,156.023,301.8,130.7l78.9,17.571ZM309.794,133.8l31.2,20.413,31.974-6.46Z" transform="translate(-301.8 -130.7)"/>
      </g>
      <g id="triangle36_2_" class="cls-130" transform="translate(512.619 240.306)">
        <path id="Path_7875" data-name="Path 7875" class="cls-75" d="M235.131,288.779l-1.031-1.292L412.279,130.9l36.616,23.772ZM412.537,132.967,242.609,282.319,446.058,154.672Z" transform="translate(-234.1 -130.9)"/>
      </g>
    </g>
  </g>
</svg>
