<svg id="Group_3051" data-name="Group 3051" xmlns="http://www.w3.org/2000/svg" viewBox="0 0 46.085 40.324">
  <defs>
    <style>
      .cls-1 {
        fill: #0f6cd6;
      }
    </style>
  </defs>
  <path id="Path_1" data-name="Path 1" class="cls-1" d="M45.986,0,34.494,20.162,23,40.324l-5.558-9.76L28.4,24.319l2.453-6.848L28.007,19,15.151,26.568l-2.077-3.635c1.483-.964,19.087-12.049,20.273-12.792a.245.245,0,0,0,.059-.04l1.681-4.378h-.079l-4.351-.5L10.325,18.114,7.872,13.8,20.748,6.1,23.418,4.4l-7.14-1.165L5.6,9.82.04.06,0,0Z"/>
  <path id="Path_2" data-name="Path 2" class="cls-1" d="M46.146,0l-.04.06L38.274,13.816l-3.62,6.346L31.53,25.624,28.6,30.765l-5.459,9.559.89-2.852L28.543,24.3l2.472-6.828,2.492-7.33L35.11,5.9l.079-.181h-.1q-5.9-.663-11.808-1.345c-2.453-.4-4.905-.8-7.338-1.2L.2.06.437,0Z" transform="translate(-0.16)"/>
  <g id="Group_1" data-name="Group 1" transform="translate(29.411)">
    <path id="Path_3" data-name="Path 3" class="cls-1" d="M148.7,0l9.969,3.534-1.286,10.4L165.374,0Z" transform="translate(-148.7)"/>
  </g>
  <path id="Path_4" data-name="Path 4" class="cls-1" d="M59.6,0,82.84,5.7l-3.7,20.022,6.764-11.788L87.231,3.494,77.223,0Z" transform="translate(-47.812)"/>
  <path id="Path_5" data-name="Path 5" class="cls-1" d="M139.382,0l-7.991,13.917-6.745,11.808-2.908,5.041L116.3,40.324l.89-2.832,4.51-13.174,2.453-6.848,2.492-7.33L128.306,5.7h0l4.312-2.169L139.263.06Z" transform="translate(-93.297)"/>
</svg>
