<svg xmlns="http://www.w3.org/2000/svg" viewBox="0 0 62.001 50.001">
  <defs>
    <style>
      .cls-1 {
        fill: none;
        stroke: #0f6cd6;
        stroke-linecap: round;
        stroke-linejoin: round;
        stroke-width: 2px;
      }
    </style>
  </defs>
  <g id="colored_ico-64" transform="translate(-1 -0.999)">
    <g id="colored_ico-64-2" data-name="colored_ico-64" transform="translate(2 2)">
      <g id="Shape" transform="translate(0 0)">
        <path id="Path_7570" data-name="Path 7570" class="cls-1" d="M59.993,3.5A3.27,3.27,0,0,0,59.026.964,3.347,3.347,0,0,0,56.464.007H3.529A3.606,3.606,0,0,0,0,3.5V41.019" transform="translate(0 0)"/>
      </g>
      <g id="Shape_2" transform="translate(59.993 10.478)">
        <path id="Path_7571" data-name="Path 7571" class="cls-1" d="M0,33.159V0"/>
      </g>
      <g id="Shape_3" transform="translate(0 44.51)">
        <path id="Path_7572" data-name="Path 7572" class="cls-1" d="M59.993,0a4.089,4.089,0,0,1-3.529,3.49H0"/>
      </g>
      <g id="Shape_4" transform="translate(0.882 16.586)">
        <path id="Path_7573" data-name="Path 7573" class="cls-1" d="M0,24.433,16.763,9.6l11,9.424L48.524,0,59.111,9.6"/>
      </g>
    </g>
  </g>
</svg>
