<svg width="403.902" height="564.798" xmlns="http://www.w3.org/2000/svg">
 <defs>
  <style>@keyframes shake {
  10%, 90% {
    transform: translate3d(-1px, 1px, 0);
  }
  20%, 80% {
    transform: translate3d(2px, 2px, 0);
  }
  30%, 50%, 70% {
    transform: translate3d(-2px, -2px, 0);
  }
  40%, 60% {
    transform: translate3d(2px, 2px, 0);
  }
}
.fire {
  animation: shake 0.42s cubic-bezier(.36,.07,.19,.97) both infinite;
}
      .cls-1 {
        fill: #00a2ff;
      }

      .cls-2 {
        fill: #0598ec;
      }

      .cls-3 {
        fill: #0890de;
      }

      .cls-4 {
        fill: #efefef;
      }

      .cls-5 {
        fill: #d8d8d8;
      }

      .cls-6 {
        fill: #c9c9c9;
      }

      .cls-7 {
        fill: #9b9b9b;
      }

      .cls-8 {
        fill: #5e6872;
      }

      .cls-9 {
        fill: #424d59;
      }

      .cls-10 {
        fill: #76808c;
      }

      .cls-11 {
        fill: #e2e2e2;
      }

      .cls-12 {
        fill: #fdffff;
      }

      .cls-13 {
        fill: #fff;
      }</style>
 </defs>
 <g>
  <title>background</title>
  <rect fill="none" id="canvas_background" height="402" width="582" y="-1" x="-1"/>
 </g>
 <g>
  <title>Layer 1</title>
  <g transform="rotate(30 121.16156005859372,446.66986083984375) " id="svg_1">
   <g id="Group_3483">
    <path d="m107.894557,418.200379s-12.828,4.92 -12.828,23.2s12.828,33.739 12.828,33.739s12.828,-15.468 12.828,-33.739s-12.828,-23.2 -12.828,-23.2z" class="cls-1" id="Path_8300"/>
    <path d="m107.894559,418.200379s-8.435,4.217 -8.435,19.857s8.435,28.819 8.435,28.819s8.435,-13.176 8.435,-28.819s-8.435,-19.857 -8.435,-19.857z" class="cls-2" id="Path_8301"/>
    <path d="m107.894561,418.200379s-5.623,3.163 -5.623,14.937a49.831,49.831 0 0 0 5.623,21.79a49.832,49.832 0 0 0 5.623,-21.79c0,-11.774 -5.623,-14.937 -5.623,-14.937z" class="cls-3" id="Path_8302"/>
   </g>
   <g id="Group_3484">
    <path d="m134.428559,418.200379s-12.828,4.92 -12.828,23.2s12.828,33.739 12.828,33.739s12.828,-15.468 12.828,-33.739s-12.828,-23.2 -12.828,-23.2z" class="cls-1" id="Path_8303"/>
    <path d="m134.428557,418.200379s-8.435,4.217 -8.435,19.857s8.435,28.819 8.435,28.819s8.435,-13.176 8.435,-28.819s-8.435,-19.857 -8.435,-19.857z" class="cls-2" id="Path_8304"/>
    <path d="m134.428563,418.200379s-5.623,3.163 -5.623,14.937a49.831,49.831 0 0 0 5.623,21.79a49.832,49.832 0 0 0 5.623,-21.79c0,-11.774 -5.623,-14.937 -5.623,-14.937z" class="cls-3" id="Path_8305"/>
   </g>
  </g>
  <g transform="rotate(30 103.18215942382822,477.98510742187494) " id="Group_3488">
   <g id="Group_3486">
    <path d="m32.365152,430.803136s-21.087,8.083 -21.087,38.484s21.087,55.88 21.087,55.88s21.087,-25.48 21.087,-55.88s-21.087,-38.484 -21.087,-38.484z" class="cls-1" id="Path_8306"/>
    <path d="m32.365152,430.803136s-13.882,7.029 -13.882,32.861c0,26.007 13.882,47.8 13.882,47.8s13.882,-21.79 13.882,-47.8c0.001,-25.832 -13.882,-32.861 -13.882,-32.861z" class="cls-2" id="Path_8307"/>
    <path d="m32.365152,430.803136s-9.313,5.272 -9.313,24.953s9.313,36.024 9.313,36.024s9.313,-16.518 9.313,-36.024c0.001,-19.681 -9.313,-24.953 -9.313,-24.953z" class="cls-3" id="Path_8308"/>
   </g>
   <g id="Group_3487">
    <path d="m173.999157,430.803136s-21.087,8.083 -21.087,38.484s21.087,55.88 21.087,55.88s21.087,-25.48 21.087,-55.88s-21.087,-38.484 -21.087,-38.484z" class="cls-1" id="Path_8309"/>
    <path d="m173.999152,430.803136s-13.882,7.029 -13.882,32.861c0,26.007 13.882,47.8 13.882,47.8s13.882,-21.79 13.882,-47.8c0.001,-25.832 -13.882,-32.861 -13.882,-32.861z" class="cls-2" id="Path_8310"/>
    <path d="m173.999154,430.803136s-9.313,5.272 -9.313,24.953s9.313,36.024 9.313,36.024s9.313,-16.518 9.313,-36.024c0.001,-19.681 -9.313,-24.953 -9.313,-24.953z" class="cls-3" id="Path_8311"/>
   </g>
  </g>
  <g transform="rotate(30 243.50436401367193,234.80738830566403) " id="Group_3517">
   <path d="m286.272614,422.695622l-85.578,0l0,-344.421a115.927,115.927 0 0 1 28.116,-75.561l10.719,-12.472a5.349,5.349 0 0 1 8.083,0l10.719,12.476a115.927,115.927 0 0 1 28.116,75.562l0,344.416l-0.175,0z" class="cls-1" id="Path_8312"/>
   <g id="Group_3489">
    <path d="m332.66361,458.896618l-36.375,0l0,-347.761a34.027,34.027 0 0 1 8.435,-22.493l7.38,-8.435a3.144,3.144 0 0 1 4.92,0l7.38,8.435a34.367,34.367 0 0 1 8.435,22.493l0,347.761l-0.175,0z" class="cls-4" id="Path_8313"/>
    <path d="m190.678612,458.896618l-36.2,0l0,-347.761a34.027,34.027 0 0 1 8.435,-22.493l7.38,-8.435a3.144,3.144 0 0 1 4.92,0l7.38,8.435a34.367,34.367 0 0 1 8.435,22.493l0,347.761l-0.35,0z" class="cls-4" id="Path_8314"/>
   </g>
   <path d="m314.915611,458.895621l17.572,0l0,-347.76a34.027,34.027 0 0 0 -8.435,-22.493l-7.38,-8.435a4.189,4.189 0 0 0 -1.933,-1.054l0,379.742l0.176,0z" class="cls-5" id="Path_8315"/>
   <path d="m173.105612,458.895621l17.572,0l0,-347.76a34.027,34.027 0 0 0 -8.435,-22.493l-7.38,-8.435a4.189,4.189 0 0 0 -1.933,-1.054l0,379.742l0.176,0z" class="cls-5" id="Path_8316"/>
   <g id="Group_3491">
    <rect x="154.478612" y="143.293615" height="1.933" width="36.375" class="cls-6" id="Rectangle_2218"/>
    <g id="Group_3490">
     <rect x="154.478612" y="143.820615" height="0.703" width="36.375" class="cls-7" id="Rectangle_2219"/>
    </g>
    <rect x="296.28861" y="143.293615" height="1.933" width="36.375" class="cls-6" id="Rectangle_2220"/>
    <rect x="296.28861" y="143.820615" height="0.703" width="36.375" class="cls-7" id="Rectangle_2221"/>
   </g>
   <g id="Group_3493">
    <rect x="154.478612" y="147.334615" height="1.933" width="36.375" class="cls-6" id="Rectangle_2222"/>
    <g id="Group_3492">
     <rect x="154.478612" y="147.861615" height="0.703" width="36.375" class="cls-7" id="Rectangle_2223"/>
    </g>
    <rect x="296.28861" y="147.334615" height="1.933" width="36.375" class="cls-6" id="Rectangle_2224"/>
    <rect x="296.28861" y="147.861615" height="0.703" width="36.375" class="cls-7" id="Rectangle_2225"/>
   </g>
   <g id="Group_3495">
    <rect x="154.478612" y="217.800618" height="4.042" width="36.375" class="cls-6" id="Rectangle_2226"/>
    <g id="Group_3494">
     <rect x="154.478612" y="219.030618" height="1.582" width="36.375" class="cls-7" id="Rectangle_2227"/>
    </g>
    <rect x="296.28861" y="217.800618" height="4.042" width="36.375" class="cls-6" id="Rectangle_2228"/>
    <rect x="296.28861" y="219.030618" height="1.582" width="36.375" class="cls-7" id="Rectangle_2229"/>
   </g>
   <g id="Group_3497">
    <rect x="154.478612" y="301.094625" height="4.042" width="36.375" class="cls-6" id="Rectangle_2230"/>
    <g id="Group_3496">
     <rect x="154.478612" y="302.324625" height="1.582" width="36.375" class="cls-7" id="Rectangle_2231"/>
    </g>
    <rect x="296.28861" y="301.094625" height="4.042" width="36.375" class="cls-6" id="Rectangle_2232"/>
    <rect x="296.28861" y="302.324625" height="1.582" width="36.375" class="cls-7" id="Rectangle_2233"/>
   </g>
   <path d="m265.712611,422.695622l0,-410.316a97.767,97.767 0 0 0 -7.38,-9.489l-10.719,-12.654a5.089,5.089 0 0 0 -4.042,-1.757l0,434.216l22.141,0z" class="cls-2" id="Path_8317"/>
   <path d="m265.712612,422.695621l20.736,0l0,-344.418a114.089,114.089 0 0 0 -20.736,-65.9l0,410.318z" class="cls-3" id="Path_8318"/>
   <g id="Group_3498">
    <rect x="200.694615" y="89.521619" height="6.678" width="85.578" class="cls-2" id="Rectangle_2234"/>
    <rect x="200.694615" y="91.630619" height="2.636" width="85.578" class="cls-3" id="Rectangle_2235"/>
   </g>
   <g id="Group_3499">
    <rect x="200.694615" y="185.642629" height="6.678" width="85.578" class="cls-2" id="Rectangle_2236"/>
    <rect x="200.694615" y="187.751629" height="2.636" width="85.578" class="cls-3" id="Rectangle_2237"/>
   </g>
   <g id="Group_3500">
    <path d="m269.578614,425.507613l87.16,-11.422a12.905,12.905 0 0 0 11.07,-14.937l-98.23,13.531l0,12.828z" class="cls-8" id="Path_8319"/>
    <path d="m217.387613,425.507613l-87.159,-11.422a12.905,12.905 0 0 1 -11.071,-14.937l98.23,13.531l0,12.828z" class="cls-8" id="Path_8320"/>
   </g>
   <g id="Group_3501">
    <path d="m248.491614,436.754633l0,7.2l24.074,0a1.95,1.95 0 0 0 1.933,-1.933l0,-5.443l-26.007,0l0,0.176z" class="cls-9" id="Path_8321"/>
    <path d="m212.643612,436.754638l0,5.447a1.95,1.95 0 0 0 1.933,1.933l24.074,0l0,-7.2l-26.007,0l0,-0.18z" class="cls-9" id="Path_8322"/>
   </g>
   <g id="Group_3511">
    <g id="Group_3504">
     <g id="Group_3502">
      <path d="m372.90462,398.445623l-3.69,-22.141a17.876,17.876 0 0 0 -7.556,-11.774l-47.976,-38.835a21.715,21.715 0 0 1 -7.2,-10.895l-42,-140.58l0,257.086l92.959,-12.125a17.912,17.912 0 0 0 12.125,-7.2a16.912,16.912 0 0 0 3.338,-13.536z" class="cls-9" id="Path_8323"/>
      <path d="m367.808616,399.323624l-3.69,-22.141a12.6,12.6 0 0 0 -5.623,-8.611l-48.149,-39.011a27.812,27.812 0 0 1 -8.962,-13.355l-31.982,-107.016l0,216.493l87.16,-11.422a12.88,12.88 0 0 0 11.246,-14.937z" class="cls-10" id="Path_8324"/>
      <path d="m282.40662,251.891619l-12.828,-42.877l0,216.493l12.828,-1.582l0,-172.034z" class="cls-8" id="Path_8325"/>
     </g>
     <g id="Group_3503">
      <path d="m114.061613,398.445623l3.69,-22.141a17.876,17.876 0 0 1 7.556,-11.774l47.974,-38.835a21.715,21.715 0 0 0 7.2,-10.895l42,-140.58l0,257.086l-92.956,-12.125a17.912,17.912 0 0 1 -12.125,-7.2a17.6,17.6 0 0 1 -3.339,-13.536z" class="cls-9" id="Path_8326"/>
      <path d="m119.158613,399.323624l3.69,-22.141a12.6,12.6 0 0 1 5.623,-8.611l48.149,-39.011a27.812,27.812 0 0 0 8.959,-13.354l31.985,-107.017l0,216.493l-87.16,-11.422a13,13 0 0 1 -11.246,-14.937z" class="cls-10" id="Path_8327"/>
      <path d="m204.560614,251.891619l12.828,-42.877l0,216.493l-12.828,-1.581l0,-172.035z" class="cls-8" id="Path_8328"/>
     </g>
    </g>
    <path d="m270.808612,435.523619l-54.65,0l0,-241.27a74.069,74.069 0 0 1 17.924,-48.324l6.853,-7.908a3.33,3.33 0 0 1 5.1,0l6.853,7.908a73.727,73.727 0 0 1 17.924,48.324l-0.004,241.27z" class="cls-4" id="Path_8329"/>
    <path d="m257.629611,422.696626l0,-270.617c-1.406,-2.109 -2.987,-4.042 -4.569,-5.975l-6.853,-7.907a3.737,3.737 0 0 0 -2.636,-1.23l0,285.729l14.058,0z" class="cls-11" id="Path_8330"/>
    <path d="m257.629614,152.079619l0,270.617l13.179,0l0,-232.66a75.274,75.274 0 0 0 -13.179,-37.957z" class="cls-5" id="Path_8331"/>
    <path d="m257.101612,170.531624l-12.125,-3.866a4.364,4.364 0 0 0 -2.987,0l-12.125,3.866a2.144,2.144 0 0 0 -1.582,1.406l-5.8,11.6c-0.527,1.054 0.351,2.109 1.757,2.109l1.408,0a1.647,1.647 0 0 0 1.582,-0.879l3.515,-5.447a4.708,4.708 0 0 1 2.636,-1.757l9.313,-1.757l1.23,0l9.313,1.757a3.608,3.608 0 0 1 2.636,1.757l3.514,5.447a2.1,2.1 0 0 0 1.582,0.879l1.406,0c1.406,0 2.284,-1.054 1.757,-2.109l-5.8,-11.6c0.176,-0.704 -0.527,-1.231 -1.23,-1.406z" class="cls-9" id="Path_8332"/>
    <g id="Group_3507">
     <g id="Group_3505">
      <path d="m268.172617,210.947623l-4.041,0a3.337,3.337 0 0 1 -3.339,-3.339l0,-0.7a3.337,3.337 0 0 1 3.339,-3.339l4.041,0l0,7.378z" class="cls-8" id="Path_8333"/>
      <path d="m268.172617,231.155623l-4.041,0a3.337,3.337 0 0 1 -3.339,-3.339l0,-0.7a3.336,3.336 0 0 1 3.339,-3.339l4.041,0l0,7.378z" class="cls-8" id="Path_8334"/>
      <path d="m268.172617,251.364623l-4.041,0a3.337,3.337 0 0 1 -3.339,-3.339l0,-0.7a3.337,3.337 0 0 1 3.339,-3.339l4.041,0l0,7.378z" class="cls-8" id="Path_8335"/>
      <path d="m268.172617,271.572623l-4.041,0a3.337,3.337 0 0 1 -3.339,-3.339l0,-0.7a3.336,3.336 0 0 1 3.339,-3.339l4.041,0l0,7.378z" class="cls-8" id="Path_8336"/>
      <path d="m268.172617,291.781622l-4.041,0a3.337,3.337 0 0 1 -3.339,-3.339l0,-0.7a3.337,3.337 0 0 1 3.339,-3.339l4.041,0l0,7.378z" class="cls-8" id="Path_8337"/>
     </g>
     <g id="Group_3506">
      <path d="m218.794613,284.577624l4.042,0a3.337,3.337 0 0 1 3.339,3.339l0,0.7a3.336,3.336 0 0 1 -3.339,3.339l-4.042,0l0,-7.378z" class="cls-8" id="Path_8338"/>
      <path d="m218.794613,264.368624l4.042,0a3.337,3.337 0 0 1 3.339,3.339l0,0.7a3.336,3.336 0 0 1 -3.339,3.339l-4.042,0l0,-7.378z" class="cls-8" id="Path_8339"/>
      <path d="m218.794613,244.160624l4.042,0a3.336,3.336 0 0 1 3.339,3.339l0,0.7a3.336,3.336 0 0 1 -3.339,3.339l-4.042,0l0,-7.378z" class="cls-8" id="Path_8340"/>
      <path d="m218.794613,223.951624l4.042,0a3.336,3.336 0 0 1 3.339,3.339l0,0.7a3.336,3.336 0 0 1 -3.339,3.339l-4.042,0l0,-7.378z" class="cls-8" id="Path_8341"/>
      <path d="m218.794613,203.743624l4.042,0a3.336,3.336 0 0 1 3.339,3.339l0,0.7a3.336,3.336 0 0 1 -3.339,3.339l-4.042,0l0,-7.378z" class="cls-8" id="Path_8342"/>
     </g>
    </g>
    <path d="m240.057613,400.027623l7.029,0c1.582,0 2.812,1.054 2.636,2.284l-1.23,32.333a2.4,2.4 0 0 1 -2.636,2.109l-4.745,0a2.4,2.4 0 0 1 -2.636,-2.109l-1.23,-32.333a2.593,2.593 0 0 1 2.812,-2.284z" class="cls-9" id="Path_8343"/>
    <g id="Group_3508">
     <path d="m238.475609,443.958611l0,12.477l-12.653,0a3.964,3.964 0 0 1 -3.69,-2.636l-5.623,-15.288l21.966,5.447z" class="cls-12" id="Path_8344"/>
     <path d="m248.49161,443.958611l0,12.477l12.652,0a3.964,3.964 0 0 0 3.69,-2.636l5.624,-15.288l-21.966,5.447z" class="cls-12" id="Path_8345"/>
    </g>
    <g id="Group_3509">
     <path d="m248.491614,453.623604l0,2.987l12.652,0a3.964,3.964 0 0 0 3.69,-2.636l0.176,-0.351l-16.518,0z" class="cls-9" id="Path_8346"/>
     <path d="m221.957616,453.623604l0.176,0.351a3.964,3.964 0 0 0 3.69,2.636l12.652,0l0,-2.987l-16.518,0z" class="cls-9" id="Path_8347"/>
    </g>
    <g id="Group_3510">
     <path d="m272.565614,443.959631l-24.074,0l0,-51.488a1.2,1.2 0 0 1 1.23,-1.23l5.8,0a18.824,18.824 0 0 1 18.8,18.8l0,31.982a1.708,1.708 0 0 1 -1.756,1.936z" class="cls-10" id="Path_8348"/>
     <path d="m214.400612,443.959631l24.075,0l0,-51.488a1.2,1.2 0 0 0 -1.23,-1.23l-5.802,0a18.824,18.824 0 0 0 -18.8,18.8l0,31.982a1.806,1.806 0 0 0 1.757,1.936z" class="cls-10" id="Path_8349"/>
    </g>
    <path d="m242.165612,383.158623l-1.933,18.627l6.853,0l-1.933,-18.627a1.505,1.505 0 0 0 -2.987,0z" class="cls-9" id="Path_8350"/>
   </g>
   <g id="Group_3512">
    <path d="m148.503613,387.199612l-6.15,-3.515a1.925,1.925 0 0 0 -1.406,0l-6.15,3.515a1.177,1.177 0 0 0 -0.7,1.23l0,7.2a1.479,1.479 0 0 0 0.7,1.23l6.15,3.515a1.057,1.057 0 0 0 0.7,0.176a1.057,1.057 0 0 0 0.7,-0.176l6.15,-3.515a1.176,1.176 0 0 0 0.7,-1.23l0,-7.2a1.327,1.327 0 0 0 -0.694,-1.23zm-7.2,12.477l-6.15,-3.514c-0.176,-0.176 -0.351,-0.351 -0.351,-0.527l0,-7.2c0,-0.176 0.176,-0.351 0.351,-0.527l6.15,-3.514l0.7,0l6.15,3.514c0.176,0.176 0.351,0.351 0.351,0.527l0,7.2c0,0.176 -0.176,0.351 -0.351,0.527l-6.15,3.514a0.535,0.535 0 0 1 -0.709,0l0.009,0z" class="cls-13" id="Path_8351"/>
    <path d="m351.993616,387.199612l-6.15,-3.515a1.925,1.925 0 0 0 -1.406,0l-6.153,3.515a1.177,1.177 0 0 0 -0.7,1.23l0,7.2a1.479,1.479 0 0 0 0.7,1.23l6.15,3.515a1.494,1.494 0 0 0 1.406,0l6.15,-3.515a1.176,1.176 0 0 0 0.7,-1.23l0,-7.2a1.778,1.778 0 0 0 -0.697,-1.23zm-7.2,12.477l-6.15,-3.514c-0.176,-0.176 -0.351,-0.351 -0.351,-0.527l0,-7.2c0,-0.176 0.176,-0.351 0.351,-0.527l6.15,-3.514l0.7,0l6.15,3.514c0.176,0.176 0.351,0.351 0.351,0.527l0,7.2c0,0.176 -0.176,0.351 -0.351,0.527l-6.15,3.514c-0.353,0.175 -0.529,0.175 -0.709,0l0.009,0z" class="cls-13" id="Path_8352"/>
   </g>
   <g id="Group_3514">
    <path d="m325.811612,462.409615l-22.669,0l-5.447,16.87a1.57,1.57 0 0 0 1.582,1.933l30.224,0a1.513,1.513 0 0 0 1.582,-1.933l-5.272,-16.87z" class="cls-4" id="Path_8353"/>
    <path d="m329.501615,476.467615a0.646,0.646 0 0 0 0.527,-0.176l-4.393,-13.882l-22.669,0l-4.393,13.882c0.176,0 0.351,0.176 0.527,0.176l30.401,0z" class="cls-5" id="Path_8354"/>
    <g id="Group_3513">
     <path d="m332.66461,458.895607l-36.375,0l-8.259,13.179a1.38,1.38 0 0 0 1.23,2.109l50.433,0a1.437,1.437 0 0 0 1.23,-2.109l-8.259,-13.179z" class="cls-10" id="Path_8355"/>
     <path d="m332.663611,458.895607l8.259,13.179a1.38,1.38 0 0 1 -1.23,2.109l-15.815,0l-8.786,-15.288l17.572,0z" class="cls-8" id="Path_8356"/>
    </g>
   </g>
   <g id="Group_3516">
    <path d="m183.825614,462.409615l-22.493,0l-5.447,16.87a1.57,1.57 0 0 0 1.582,1.933l30.224,0a1.513,1.513 0 0 0 1.582,-1.933l-5.448,-16.87z" class="cls-4" id="Path_8357"/>
    <path d="m187.691614,476.467615a0.646,0.646 0 0 0 0.527,-0.176l-4.393,-13.882l-22.493,0l-4.393,13.882c0.176,0 0.351,0.176 0.527,0.176l30.225,0z" class="cls-5" id="Path_8358"/>
    <g id="Group_3515">
     <path d="m190.678614,458.895607l-36.2,0l-8.259,13.179a1.38,1.38 0 0 0 1.23,2.109l50.434,0a1.437,1.437 0 0 0 1.23,-2.109l-8.435,-13.179z" class="cls-10" id="Path_8359"/>
     <path d="m190.678614,458.895607l8.259,13.179a1.38,1.38 0 0 1 -1.23,2.109l-15.816,0l-8.786,-15.288l17.573,0z" class="cls-8" id="Path_8360"/>
    </g>
   </g>
  </g>
 </g>
</svg>