<svg xmlns="http://www.w3.org/2000/svg" viewBox="0 0 580.898 330.912">
  <defs>
    <style>
    @keyframes glow-star{
    40% {opacity: 0.3;}
    90%,100% { opacity: 1;}
}
      .cls-1 {
        fill: #0f6cd6;
      }

      .cls-2 {
        fill: #abc3ff;
      }

      .cls-3 {
        fill: #79a1f2;
      }

      .cls-10, .cls-11, .cls-3, .cls-4, .cls-7, .cls-8 {
        fill-rule: evenodd;
      }
.cls-11 {
    animation: glow-star 2s infinite ease-in-out alternate 5s;
}
.cls-9 {
    animation: glow-star 2s infinite ease-in-out alternate 1s;
}
      .cls-4 {
        fill: #618de5;
      }

      .cls-11, .cls-5 {
        fill: #fff;
      }

      .cls-6 {
        fill: #7b91ff;
      }

      .cls-7 {
        fill: #80c3ff;
      }

      .cls-8 {
        fill: #494089;
      }

      .cls-10, .cls-9 {
        fill: #90c9ea;
      }
    </style>
  </defs>
  <g id="Group_3482" data-name="Group 3482" transform="translate(-0.161 0.05)">
    <path id="Path_8255" data-name="Path 8255" class="cls-1" d="M66.476,98.973C40.79,107.291,11.018,120.28,6.2,146.842c-3.065,17.367,7.005,35.464,22.183,44.367,7.443,4.378,16.492,7.443,20.432,15.178,5.984,11.967-4.816,25.54-16.2,32.545s-25.394,12.405-30.5,24.81c-3.357,8.173-2.043,17.513,1.313,25.686,12.405,29.772,48.745,42.907,81,41.3s62.9-14.156,94.425-20.578c108.582-22.183,222.564,28.167,331,5.108,16.93-3.649,33.859-9.194,46.848-20.578,14.74-12.7,23.059-31.962,24.227-51.372,1.168-18.535-5.4-39.4-21.891-47.723-9.632-4.816-21.308-4.67-31.816-2.043-6.713,1.751-13.281,4.378-20.286,4.378-6.859,0-14.594-3.357-16.492-10.07-2.043-7.005,2.627-14.156,8.173-18.973,11.238-9.632,26.27-14.448,36.34-25.248a44.2,44.2,0,0,0,10.654-39.551,43.982,43.982,0,0,0-27.437-30.5c-34.3-12.113-71.512,21.016-106.539,11.238-2.627-.73-5.4-1.9-6.713-4.086-1.313-2.335-1.022-5.108-.292-7.735,4.232-14.157,20.87-23.059,21.6-37.8.438-8.027-4.378-15.47-10.362-20.87-41.01-36.778-100.263,7.005-142,20.724C205.269,57.817,135.362,76.789,66.476,98.973Z"/>
    <g id="Group_3477" data-name="Group 3477" transform="translate(162.888 80.438)">
      <circle id="Ellipse_131" data-name="Ellipse 131" class="cls-2" cx="18.681" cy="18.681" r="18.681" transform="translate(12.316)"/>
      <path id="Path_8259" data-name="Path 8259" class="cls-3" d="M135.749,55.1a18.531,18.531,0,0,0-9.048,2.335,2.015,2.015,0,0,0,.438.584c1.9,1.9,6.421,2.043,8.9,2.043a30.212,30.212,0,0,0,10.8-1.459A18.932,18.932,0,0,0,135.749,55.1Z" transform="translate(-104.752 -55.1)"/>
      <path id="Path_8260" data-name="Path 8260" class="cls-3" d="M152.991,62.865a8.926,8.926,0,0,0,1.751-.73,13.225,13.225,0,0,0-1.605-2.335c-1.9.876-3.649,1.605-5.546,2.481-1.459.584-2.919,1.313-4.378,1.751a27.266,27.266,0,0,1-6.859.584,117.805,117.805,0,0,1-14.3-1.022,18.459,18.459,0,0,0-1.751,8.027,18.115,18.115,0,0,0,.438,3.94,17.2,17.2,0,0,0,2.773-1.605,36.487,36.487,0,0,1,7.735-3.357C138.251,67.973,145.694,65.492,152.991,62.865Z" transform="translate(-107.692 -52.941)"/>
      <path id="Path_8261" data-name="Path 8261" class="cls-3" d="M149.245,62.8c-1.459,1.313-2.481,3.065-4.086,4.232a19.838,19.838,0,0,1-5.4,3.065c-1.313.584-2.773.876-4.086,1.605-.438.292-1.022.584-1.168,1.168-.146,1.022.876,1.605,1.9,1.9a25.693,25.693,0,0,0,5.838.292c2.335-.146,4.524-.146,6.859-.292a2.845,2.845,0,0,0,1.168-.146,22.56,22.56,0,0,0,.584-4.524A18.275,18.275,0,0,0,149.245,62.8Z" transform="translate(-101.173 -51.562)"/>
      <path id="Path_8262" data-name="Path 8262" class="cls-3" d="M139.043,67.5a52.938,52.938,0,0,0-9.632,3.065c-2.043.876-4.086,2.043-6.13,2.773a10.479,10.479,0,0,1-2.481.292,20.175,20.175,0,0,0,5.838,8.757c.146-.292.438-.438.584-.73,2.773-3.649,4.67-8.319,8.757-10.654a17.374,17.374,0,0,0,2.189-1.313A2.36,2.36,0,0,0,139.043,67.5Z" transform="translate(-107.463 -49.403)"/>
      <path id="Path_8263" data-name="Path 8263" class="cls-3" d="M152.21,73.3h-.584c-3.94.292-7.881.438-11.967.73-2.481.146-5.108.292-7.151,1.751-1.605,1.022-2.627,2.773-3.649,4.378-.292.584-1.022,1.313-1.459,2.189a16.586,16.586,0,0,0,7.589,1.751,16.52,16.52,0,0,1,1.459-1.9,16.307,16.307,0,0,1,11.238-6.276c1.168-.146,2.335-.146,3.5-.292C151.481,74.759,151.919,74.03,152.21,73.3Z" transform="translate(-104.43 -46.738)"/>
      <path id="Path_8264" data-name="Path 8264" class="cls-4" d="M154.8,74a32.841,32.841,0,0,0,1.168-3.5,112.3,112.3,0,0,1-16.492,4.378A110.291,110.291,0,0,1,122.4,76.922a21.342,21.342,0,0,0,2.335,2.773,127,127,0,0,0,15.324-2.043A98.937,98.937,0,0,0,154.8,74Z" transform="translate(-106.728 -48.025)"/>
      <g id="Group_3476" data-name="Group 3476" transform="translate(0 9.742)">
        <path id="Path_8265" data-name="Path 8265" class="cls-5" d="M124.415,82.535c-6.713,0-12.113-1.022-12.7-4.232-.584-3.065,3.357-6.13,11.675-9.34a1.478,1.478,0,0,1,1.022,2.773c-8.465,3.211-9.924,5.546-9.924,5.984.292,1.605,10.8,3.5,29.772-.292a108.037,108.037,0,0,0,20.724-5.984c6.13-2.627,7.151-4.524,7.005-4.816-.146-.438-2.481-2.189-11.967-1.9a1.462,1.462,0,0,1-1.459-1.459,1.379,1.379,0,0,1,1.459-1.459c9.34-.292,14.448,1.168,15.032,4.232.584,2.627-2.335,5.254-8.757,8.173a103.64,103.64,0,0,1-21.308,6.276A142.288,142.288,0,0,1,124.415,82.535Z" transform="translate(-111.661 -61.775)"/>
      </g>
    </g>
    <g id="Group_3478" data-name="Group 3478" transform="translate(464.199 116.126)">
      <circle id="Ellipse_132" data-name="Ellipse 132" class="cls-6" cx="15.032" cy="15.032" r="15.032" transform="matrix(0.982, -0.189, 0.189, 0.982, 0, 5.685)"/>
      <path id="Path_8266" data-name="Path 8266" class="cls-7" d="M337.4,83.158a13.186,13.186,0,0,0-7.3-1.751.878.878,0,0,0,.146.584c.584,2.043,3.795,3.795,5.4,4.816a23.081,23.081,0,0,0,8.173,3.065A14.987,14.987,0,0,0,337.4,83.158Z" transform="translate(-312.613 -78.712)"/>
      <path id="Path_8267" data-name="Path 8267" class="cls-7" d="M348.175,94.73a5.987,5.987,0,0,0,1.605.146,14.554,14.554,0,0,0-.292-2.335c-1.605-.146-3.211-.292-4.962-.438a33.569,33.569,0,0,1-3.795-.438,22.47,22.47,0,0,1-5.108-2.189,100.687,100.687,0,0,1-9.778-6.276,16.024,16.024,0,0,0-4.378,4.962,12.2,12.2,0,0,0-1.168,2.919,6.91,6.91,0,0,0,2.481-.146,26.135,26.135,0,0,1,6.713.584C335.916,92.832,342.046,93.854,348.175,94.73Z" transform="translate(-317.116 -77.878)"/>
      <path id="Path_8268" data-name="Path 8268" class="cls-7" d="M344.979,92.5c-1.459.292-2.919,1.168-4.524,1.459a19.777,19.777,0,0,1-5.108.146,28.706,28.706,0,0,0-3.5-.438,1.21,1.21,0,0,0-1.168.438c-.584.584,0,1.459.584,2.043A22.315,22.315,0,0,0,335.2,98.63c1.605.876,3.357,1.605,4.962,2.481l.876.438a21.751,21.751,0,0,0,2.189-2.919A17.01,17.01,0,0,0,344.979,92.5Z" transform="translate(-312.46 -73.605)"/>
      <path id="Path_8269" data-name="Path 8269" class="cls-7" d="M335.516,92.327a37.061,37.061,0,0,0-8.027-1.459c-1.751-.146-3.649-.146-5.4-.438-.438-.146-1.168-.438-1.9-.73a13.953,13.953,0,0,0,.876,8.465c.292-.146.438-.146.73-.292,3.357-1.605,6.567-4.086,10.216-4.232a9.635,9.635,0,0,0,2.043-.146A1.773,1.773,0,0,0,335.516,92.327Z" transform="translate(-317.3 -74.892)"/>
      <path id="Path_8270" data-name="Path 8270" class="cls-7" d="M342.916,101.756c-.146-.146-.292-.146-.438-.292-2.919-1.313-5.838-2.773-8.757-4.086-1.751-.876-3.649-1.751-5.692-1.459a9.711,9.711,0,0,0-4.232,1.751,11.811,11.811,0,0,1-1.9.876,16.4,16.4,0,0,0,4.67,4.232l1.751-.876a12.8,12.8,0,0,1,10.362-.146c.876.292,1.751.876,2.627,1.168A6.478,6.478,0,0,1,342.916,101.756Z" transform="translate(-316.381 -72.061)"/>
    </g>
    <path id="Path_8277" data-name="Path 8277" class="cls-8" d="M218.213,197.478c-9.048-1.168-16.783,1.9-17.513,7.005v1.168c1.9-4.086,9.049-6.421,16.929-5.4,8.319,1.168,14.74,5.546,15.032,10.216a3.327,3.327,0,0,0,.438-1.605C233.975,203.754,227.262,198.646,218.213,197.478Z" transform="translate(92.135 90.637)"/>
    <circle id="Ellipse_134" data-name="Ellipse 134" class="cls-9" cx="4.816" cy="4.816" r="4.816" transform="translate(82.238 158.663)"/>
    <path id="Path_8278" data-name="Path 8278" class="cls-10" d="M249.289,24.378a2.189,2.189,0,1,1,2.189-2.189A2.245,2.245,0,0,1,249.289,24.378Z" transform="translate(113.452 9.212)"/>
    <circle id="Ellipse_135" data-name="Ellipse 135" class="cls-9" cx="2.189" cy="2.189" r="2.189" transform="translate(390.617 68.762)"/>
    <circle id="Ellipse_136" data-name="Ellipse 136" class="cls-9" cx="2.189" cy="2.189" r="2.189" transform="translate(35.245 138.085)"/>
    <path id="Path_8279" data-name="Path 8279" class="cls-11" d="M235.946,75.073a2.773,2.773,0,1,1-2.773-2.773A2.868,2.868,0,0,1,235.946,75.073Z" transform="translate(105.78 33.24)"/>
    <path id="Path_8280" data-name="Path 8280" class="cls-11" d="M314.846,161.373a2.773,2.773,0,1,1-2.773-2.773A2.771,2.771,0,0,1,314.846,161.373Z" transform="translate(142.029 72.889)"/>
    <path id="Path_8281" data-name="Path 8281" class="cls-11" d="M370.146,164.473a2.773,2.773,0,1,1-2.773-2.773A2.771,2.771,0,0,1,370.146,164.473Z" transform="translate(167.436 74.314)"/>
    <path id="Path_8282" data-name="Path 8282" class="cls-11" d="M74.846,191.873a2.773,2.773,0,0,1-5.546,0,2.684,2.684,0,0,1,2.773-2.773A2.771,2.771,0,0,1,74.846,191.873Z" transform="translate(31.765 86.902)"/>
    <path id="Path_8283" data-name="Path 8283" class="cls-11" d="M183.146,55.973a2.773,2.773,0,1,1-2.773-2.773A2.771,2.771,0,0,1,183.146,55.973Z" transform="translate(81.522 24.465)"/>
    <path id="Path_8284" data-name="Path 8284" class="cls-11" d="M161.135,101.849l3.649,2.043-3.794,2.043-2.043,3.649-1.9-3.795-3.649-2.043,3.649-1.9,2.043-3.649Z" transform="translate(70.403 45.139)"/>
    <path id="Path_8285" data-name="Path 8285" class="cls-11" d="M278.208,75.181l2.335,1.313-2.481,1.313-1.313,2.335-1.313-2.335L273.1,76.349l2.481-1.313,1.313-2.335Z" transform="translate(125.398 33.424)"/>
    <path id="Path_8286" data-name="Path 8286" class="cls-11" d="M85.308,153.581l2.481,1.313-2.481,1.314-1.313,2.335-1.313-2.335L80.2,154.749l2.481-1.168L84.14,151.1Z" transform="translate(36.773 69.444)"/>
    <path id="Path_8287" data-name="Path 8287" class="cls-11" d="M86.308,86.981l2.335,1.314-2.481,1.313-1.313,2.335-1.313-2.481L81.2,88.149l2.481-1.314L84.995,84.5Z" transform="translate(37.232 38.845)"/>
    <path id="Path_8288" data-name="Path 8288" class="cls-11" d="M36.308,186.381l2.335,1.314-2.335,1.313-1.459,2.335-1.313-2.335L31.2,187.549l2.481-1.168,1.313-2.481Z" transform="translate(14.261 84.513)"/>
    <path id="Path_8289" data-name="Path 8289" class="cls-11" d="M333.062,140.281l2.481,1.313-2.481,1.313-1.313,2.335-1.313-2.335-2.335-1.459,2.335-1.168,1.459-2.481Z" transform="translate(150.667 63.333)"/>
    <path id="Path_8290" data-name="Path 8290" class="cls-11" d="M353.308,206.081l2.335,1.313-2.335,1.314-1.459,2.335-1.314-2.481-2.335-1.313,2.481-1.314,1.314-2.335Z" transform="translate(159.901 93.564)"/>
  </g>
</svg>
